<svg width="55" height="55" viewBox="0 0 55 55" fill="none" xmlns="http://www.w3.org/2000/svg">
<g clip-path="url(#clip0)">
<path d="M0 27.5013C0 12.3121 12.3122 0.000915527 27.4996 0.000915527C42.6877 0.000915527 55 12.3122 55 27.5013C55 42.6882 42.6877 55.0003 27.4996 55.0003C12.3122 55.0003 0 42.6882 0 27.5013Z" fill="#32BEA6"/>
<path d="M42.5168 22.8964H32.0451V12.4832C32.0451 12.0425 31.6877 11.6852 31.2469 11.6852H23.6946C23.2538 11.6852 22.8965 12.0426 22.8965 12.4832V22.8964H12.4834C12.0426 22.8964 11.6853 23.2539 11.6853 23.6945V31.364C11.6853 31.8048 12.0427 32.1621 12.4834 32.1621H22.8965V42.5167C22.8965 42.9575 23.2539 43.3147 23.6946 43.3147H31.2469C31.6878 43.3147 32.0451 42.9573 32.0451 42.5167V32.1621H42.5168C42.9576 32.1621 43.3149 31.8047 43.3149 31.364V23.6945C43.3149 23.2538 42.9575 22.8964 42.5168 22.8964Z" fill="white"/>
</g>
<defs>
<clipPath id="clip0">
<rect width="55" height="55" fill="white"/>
</clipPath>
</defs>
</svg>
