<svg width="708" height="414" viewBox="0 0 708 414" fill="none" xmlns="http://www.w3.org/2000/svg">
<path d="M708 0H0V413.656H708V0Z" fill="#F0F8FF"/>
<path d="M620.358 214.663H578.546V207.099V203.119V186.642H533.619V203.119V207.099V226.338V230.351V249.591V253.57V272.81V276.822V296.062V300.042V319.314V323.294V343.421H578.546V343.454H620.358H663.886V329.378V325.366V297.147V293.168V264.95V260.97V232.752V228.772V214.663H620.358Z" fill="#C8DDF0"/>
<path d="M69.1744 249.887V258.306V262.318V267.778V271.757V277.25V281.229V286.689V290.701V296.161V300.14V305.633V309.612V315.072V319.084V324.543V328.556V343.454H106.877H133.201V328.556V324.543V319.084V315.072V309.612V305.633V300.14V296.161V290.701V286.689V281.229V277.25V271.757V267.778V262.318V258.306V249.887H106.877H69.1744Z" fill="#C8DDF0"/>
<path d="M212.852 186.642H206.53H201.021H194.745H189.236H182.96H177.452H171.13H165.621H159.345H150.224V343.421H159.345H165.621H171.13H177.452H182.96H189.236H194.745H201.021H206.53H212.852H221.972H262.701V312.079V280.736V249.36V218.018V186.642H221.972H212.852Z" fill="#C8DDF0"/>
<path d="M370.932 63.2116L342.937 84.7536L314.897 106.328L286.902 127.87V149.445V170.987V214.104V257.221V278.796V300.337V321.912V343.454H314.897H342.937H370.932H398.927H426.922V321.912V300.337V278.796V257.221V235.679V214.104V192.562V170.987V149.445V127.87V106.328V84.7536V63.2116V41.6368V20.0948L398.927 41.6368L370.932 63.2116Z" fill="#C8DDF0"/>
<path d="M464.941 109.223H459.478H455.007H449.634V129.877V154.97V180.031V205.092V230.186H455.007H459.478H464.941H469.411H474.92H479.345H484.854H489.279H494.787H499.212H504.631V205.092V180.031V154.97V129.877V109.223V73.999L467.966 109.223H464.941Z" fill="#C8DDF0"/>
<path d="M494.787 230.186H489.279H484.854H479.345H474.92H469.411H464.941H459.478H455.007H449.634V255.247V280.308H455.007H459.478H464.941H469.411H474.92H479.345H484.854H489.279H494.787H499.212H504.631V255.247V230.186H499.212H494.787Z" fill="#C8DDF0"/>
<path d="M494.787 280.308H489.279H484.854H479.345H474.92H469.411H464.941H459.478H455.007H449.634V305.402V330.463V343.454H455.007H459.478H464.941H469.411H474.92H479.345H484.854H489.279H494.787H499.212H504.631V330.463V305.402V280.308H499.212H494.787Z" fill="#C8DDF0"/>
<path d="M569.651 222.556V343.454H655.035V330.233H611.508V326.484H655.035V300.008H611.508V296.259H655.035V269.784H611.508V266.035H655.035V239.559H611.508V235.81H655.035V222.556H569.651Z" fill="white"/>
<path d="M708 343.454H0V349.999H708V343.454Z" fill="#5EAB8D"/>
<path d="M708 349.999H0V356.544H708V349.999Z" fill="#615539"/>
<path d="M97.9821 320.564H60.2793V325.694H97.9821V320.564Z" fill="#17A6D0"/>
<path d="M97.9821 293.924H60.2793V299.055H97.9821V293.924Z" fill="#17A6D0"/>
<path d="M97.9821 302.804H60.2793V307.935H97.9821V302.804Z" fill="#17A6D0"/>
<path d="M97.9821 329.444H60.2793V343.454H97.9821V329.444Z" fill="#17A6D0"/>
<path d="M97.9821 311.684H60.2793V316.815H97.9821V311.684Z" fill="#17A6D0"/>
<path d="M97.9821 255.642H60.2793V263.535H97.9821V255.642Z" fill="#17A6D0"/>
<path d="M97.9821 285.044H60.2793V290.175H97.9821V285.044Z" fill="#17A6D0"/>
<path d="M97.9821 267.285H60.2793V272.415H97.9821V267.285Z" fill="#17A6D0"/>
<path d="M97.9821 276.165H60.2793V281.295H97.9821V276.165Z" fill="#17A6D0"/>
<path d="M124.306 320.564H98.0273V325.694H124.306V320.564Z" fill="#F1F2F2"/>
<path d="M124.306 329.444H98.0273V343.454H124.306V329.444Z" fill="#F1F2F2"/>
<path d="M124.306 311.684H98.0273V316.815H124.306V311.684Z" fill="#F1F2F2"/>
<path d="M124.306 293.924H98.0273V299.055H124.306V293.924Z" fill="#F1F2F2"/>
<path d="M124.306 302.804H98.0273V307.935H124.306V302.804Z" fill="#F1F2F2"/>
<path d="M124.306 276.165H98.0273V281.295H124.306V276.165Z" fill="#F1F2F2"/>
<path d="M124.306 255.642H98.0273V263.535H124.306V255.642Z" fill="#F1F2F2"/>
<path d="M124.306 285.044H98.0273V290.175H124.306V285.044Z" fill="#F1F2F2"/>
<path d="M124.306 267.285H98.0273V272.415H124.306V267.285Z" fill="#F1F2F2"/>
<path d="M97.9821 263.535H60.2793V267.285H97.9821V263.535Z" fill="#00697D"/>
<path d="M124.306 263.535H98.0273V267.285H124.306V263.535Z" fill="#D8D9D9"/>
<path d="M97.9821 272.415H60.2793V276.164H97.9821V272.415Z" fill="#00697D"/>
<path d="M124.306 272.415H98.0273V276.164H124.306V272.415Z" fill="#D8D9D9"/>
<path d="M97.9821 281.295H60.2793V285.044H97.9821V281.295Z" fill="#00697D"/>
<path d="M124.306 281.295H98.0273V285.044H124.306V281.295Z" fill="#D8D9D9"/>
<path d="M97.9821 290.175H60.2793V293.924H97.9821V290.175Z" fill="#00697D"/>
<path d="M124.306 290.175H98.0273V293.924H124.306V290.175Z" fill="#D8D9D9"/>
<path d="M97.9821 299.055H60.2793V302.804H97.9821V299.055Z" fill="#00697D"/>
<path d="M124.306 299.055H98.0273V302.804H124.306V299.055Z" fill="#D8D9D9"/>
<path d="M97.9821 307.935H60.2793V311.684H97.9821V307.935Z" fill="#00697D"/>
<path d="M124.306 307.935H98.0273V311.684H124.306V307.935Z" fill="#D8D9D9"/>
<path d="M97.9821 316.815H60.2793V320.564H97.9821V316.815Z" fill="#00697D"/>
<path d="M124.306 316.815H98.0273V320.564H124.306V316.815Z" fill="#D8D9D9"/>
<path d="M97.9821 325.694H60.2793V329.444H97.9821V325.694Z" fill="#00697D"/>
<path d="M124.306 325.694H98.0273V329.444H124.306V325.694Z" fill="#D8D9D9"/>
<path d="M162.235 196.278H156.726V343.421H162.235V196.278Z" fill="#FF817A"/>
<path d="M174.065 196.278H168.556V343.421H174.065V196.278Z" fill="#FF817A"/>
<path d="M150.45 196.278H141.329V343.421H150.45V196.278Z" fill="#FF817A"/>
<path d="M185.85 196.278H180.341V343.421H185.85V196.278Z" fill="#FF817A"/>
<path d="M213.077 196.278H203.956V343.421H213.077V196.278Z" fill="#FF817A"/>
<path d="M197.68 196.278H192.172V343.421H197.68V196.278Z" fill="#FF817A"/>
<path d="M156.726 196.278H150.45V343.421H156.726V196.278Z" fill="#D66C67"/>
<path d="M168.511 196.278H162.235V343.421H168.511V196.278Z" fill="#D66C67"/>
<path d="M180.341 196.278H174.065V343.421H180.341V196.278Z" fill="#D66C67"/>
<path d="M192.126 196.278H185.85V343.421H192.126V196.278Z" fill="#D66C67"/>
<path d="M203.956 196.278H197.68V343.421H203.956V196.278Z" fill="#D66C67"/>
<path d="M213.077 196.278V225.713L253.805 196.278H213.077Z" fill="white"/>
<path d="M213.077 225.713H253.805V196.278L213.077 225.713Z" fill="#FF817A"/>
<path d="M569.651 222.556V252.781L611.508 222.556H569.651Z" fill="#3E7CA5"/>
<path d="M569.651 252.781H611.508V222.556L569.651 252.781Z" fill="#7FA5C9"/>
<path d="M569.651 252.781V283.005L611.508 252.781H569.651Z" fill="#3E7CA5"/>
<path d="M569.651 283.005H611.508V252.781L569.651 283.005Z" fill="#7FA5C9"/>
<path d="M569.651 283.005V313.23L611.508 283.005H569.651Z" fill="#3E7CA5"/>
<path d="M569.651 313.23H611.508V283.005L569.651 313.23Z" fill="#7FA5C9"/>
<path d="M569.651 313.23V343.454L611.508 313.23H569.651Z" fill="#3E7CA5"/>
<path d="M569.651 343.454H611.508V313.23L569.651 343.454Z" fill="#7FA5C9"/>
<path d="M278.007 323.228V343.454L306.047 323.228H278.007Z" fill="#7FA5C9"/>
<path d="M278.007 343.454H306.047V323.228L278.007 343.454Z" fill="#3E7CA5"/>
<path d="M306.047 323.228V343.454L334.042 323.228H306.047Z" fill="#7FA5C9"/>
<path d="M306.047 343.454H334.042V323.228L306.047 343.454Z" fill="#3E7CA5"/>
<path d="M334.042 323.228V343.454L362.037 323.228H334.042Z" fill="#7FA5C9"/>
<path d="M334.042 343.454H362.037V323.228L334.042 343.454Z" fill="#3E7CA5"/>
<path d="M362.037 323.228V343.454L390.032 323.228H362.037Z" fill="#7FA5C9"/>
<path d="M362.037 343.454H390.032V323.228L362.037 343.454Z" fill="#3E7CA5"/>
<path d="M390.032 323.228V343.454L418.072 323.228H390.032Z" fill="#7FA5C9"/>
<path d="M390.032 343.454H418.072V323.228L390.032 343.454Z" fill="#3E7CA5"/>
<path d="M278.007 303.001V323.228L306.047 303.001H278.007Z" fill="#7FA5C9"/>
<path d="M278.007 323.228H306.047V303.001L278.007 323.228Z" fill="#3E7CA5"/>
<path d="M306.047 303.001V323.228L334.042 303.001H306.047Z" fill="#7FA5C9"/>
<path d="M306.047 323.228H334.042V303.001L306.047 323.228Z" fill="#3E7CA5"/>
<path d="M334.042 303.001V323.228L362.037 303.001H334.042Z" fill="#7FA5C9"/>
<path d="M334.042 323.228H362.037V303.001L334.042 323.228Z" fill="#3E7CA5"/>
<path d="M362.037 303.001V323.228L390.032 303.001H362.037Z" fill="#7FA5C9"/>
<path d="M362.037 323.228H390.032V303.001L362.037 323.228Z" fill="#3E7CA5"/>
<path d="M390.032 303.001V323.228L418.072 303.001H390.032Z" fill="#7FA5C9"/>
<path d="M390.032 323.228H418.072V303.001L390.032 323.228Z" fill="#3E7CA5"/>
<path d="M278.007 282.775V303.001L306.047 282.775H278.007Z" fill="#7FA5C9"/>
<path d="M278.007 303.001H306.047V282.775L278.007 303.001Z" fill="#3E7CA5"/>
<path d="M306.047 282.775V303.001L334.042 282.775H306.047Z" fill="#7FA5C9"/>
<path d="M306.047 303.001H334.042V282.775L306.047 303.001Z" fill="#3E7CA5"/>
<path d="M334.042 282.775V303.001L362.037 282.775H334.042Z" fill="#7FA5C9"/>
<path d="M334.042 303.001H362.037V282.775L334.042 303.001Z" fill="#3E7CA5"/>
<path d="M362.037 282.775V303.001L390.032 282.775H362.037Z" fill="#7FA5C9"/>
<path d="M362.037 303.001H390.032V282.775L362.037 303.001Z" fill="#3E7CA5"/>
<path d="M390.032 282.775V303.001L418.072 282.775H390.032Z" fill="#7FA5C9"/>
<path d="M390.032 303.001H418.072V282.775L390.032 303.001Z" fill="#3E7CA5"/>
<path d="M278.007 262.516V282.775L306.047 262.516H278.007Z" fill="#7FA5C9"/>
<path d="M278.007 282.775H306.047V262.516L278.007 282.775Z" fill="#3E7CA5"/>
<path d="M306.047 262.516V282.775L334.042 262.516H306.047Z" fill="#7FA5C9"/>
<path d="M306.047 282.775H334.042V262.516L306.047 282.775Z" fill="#3E7CA5"/>
<path d="M334.042 262.516V282.775L362.037 262.516H334.042Z" fill="#7FA5C9"/>
<path d="M334.042 282.775H362.037V262.516L334.042 282.775Z" fill="#3E7CA5"/>
<path d="M362.037 262.516V282.775L390.032 262.516H362.037Z" fill="#7FA5C9"/>
<path d="M362.037 282.775H390.032V262.516L362.037 282.775Z" fill="#3E7CA5"/>
<path d="M390.032 262.516V282.775L418.072 262.516H390.032Z" fill="#7FA5C9"/>
<path d="M390.032 282.775H418.072V262.516L390.032 282.775Z" fill="#3E7CA5"/>
<path d="M334.042 242.289V262.516L362.037 242.289H334.042Z" fill="#7FA5C9"/>
<path d="M334.042 262.516H362.037V242.289L334.042 262.516Z" fill="#3E7CA5"/>
<path d="M362.037 242.289V262.516L390.032 242.289H362.037Z" fill="#7FA5C9"/>
<path d="M362.037 262.516H390.032V242.289L362.037 262.516Z" fill="#3E7CA5"/>
<path d="M390.032 242.289V262.516L418.072 242.289H390.032Z" fill="#7FA5C9"/>
<path d="M390.032 262.516H418.072V242.289L390.032 262.516Z" fill="#3E7CA5"/>
<path d="M334.042 222.063V242.289L362.037 222.063H334.042Z" fill="#7FA5C9"/>
<path d="M334.042 242.289H362.037V222.063L334.042 242.289Z" fill="#3E7CA5"/>
<path d="M362.037 222.063V242.289L390.032 222.063H362.037Z" fill="#7FA5C9"/>
<path d="M362.037 242.289H390.032V222.063L362.037 242.289Z" fill="#3E7CA5"/>
<path d="M390.032 222.063V242.289L418.072 222.063H390.032Z" fill="#7FA5C9"/>
<path d="M390.032 242.289H418.072V222.063L390.032 242.289Z" fill="#3E7CA5"/>
<path d="M334.042 201.836V222.063L362.037 201.836H334.042Z" fill="#7FA5C9"/>
<path d="M334.042 222.063H362.037V201.836L334.042 222.063Z" fill="#3E7CA5"/>
<path d="M362.037 201.836V222.063L390.032 201.836H362.037Z" fill="#7FA5C9"/>
<path d="M362.037 222.063H390.032V201.836L362.037 222.063Z" fill="#3E7CA5"/>
<path d="M390.032 201.836V222.063L418.072 201.836H390.032Z" fill="#7FA5C9"/>
<path d="M390.032 222.063H418.072V201.836L390.032 222.063Z" fill="#3E7CA5"/>
<path d="M334.042 181.577V201.836L362.037 181.577H334.042Z" fill="#7FA5C9"/>
<path d="M334.042 201.836H362.037V181.577L334.042 201.836Z" fill="#3E7CA5"/>
<path d="M362.037 181.577V201.836L390.032 181.577H362.037Z" fill="#7FA5C9"/>
<path d="M362.037 201.836H390.032V181.577L362.037 201.836Z" fill="#3E7CA5"/>
<path d="M390.032 181.577V201.836L418.072 181.577H390.032Z" fill="#7FA5C9"/>
<path d="M390.032 201.836H418.072V181.577L390.032 201.836Z" fill="#3E7CA5"/>
<path d="M278.007 161.351V181.577L306.047 161.351H278.007Z" fill="#7FA5C9"/>
<path d="M278.007 181.577H306.047V161.351L278.007 181.577Z" fill="#3E7CA5"/>
<path d="M306.047 161.351V181.577L334.042 161.351H306.047Z" fill="#7FA5C9"/>
<path d="M306.047 181.577H334.042V161.351L306.047 181.577Z" fill="#3E7CA5"/>
<path d="M334.042 161.351V181.577L362.037 161.351H334.042Z" fill="#7FA5C9"/>
<path d="M334.042 181.577H362.037V161.351L334.042 181.577Z" fill="#3E7CA5"/>
<path d="M278.007 181.577V222.063L334.042 181.577H278.007Z" fill="#7FA5C9"/>
<path d="M278.007 222.063H334.042V181.577L278.007 222.063Z" fill="#3E7CA5"/>
<path d="M278.007 222.063V262.516L334.042 222.063H278.007Z" fill="#7FA5C9"/>
<path d="M278.007 262.516H334.042V222.063L278.007 262.516Z" fill="#3E7CA5"/>
<path d="M362.037 161.351V181.577L390.032 161.351H362.037Z" fill="#7FA5C9"/>
<path d="M362.037 181.577H390.032V161.351L362.037 181.577Z" fill="#3E7CA5"/>
<path d="M390.032 161.351V181.577L418.072 161.351H390.032Z" fill="#7FA5C9"/>
<path d="M390.032 181.577H418.072V161.351L390.032 181.577Z" fill="#3E7CA5"/>
<path d="M278.007 141.124V161.351L306.047 141.124H278.007Z" fill="#7FA5C9"/>
<path d="M278.007 161.351H306.047V141.124L278.007 161.351Z" fill="#3E7CA5"/>
<path d="M306.047 141.124V161.351L334.042 141.124H306.047Z" fill="#7FA5C9"/>
<path d="M306.047 161.351H334.042V141.124L306.047 161.351Z" fill="#3E7CA5"/>
<path d="M334.042 141.124V161.351L362.037 141.124H334.042Z" fill="#7FA5C9"/>
<path d="M334.042 161.351H362.037V141.124L334.042 161.351Z" fill="#3E7CA5"/>
<path d="M362.037 141.124V161.351L390.032 141.124H362.037Z" fill="#7FA5C9"/>
<path d="M362.037 161.351H390.032V141.124L362.037 161.351Z" fill="#3E7CA5"/>
<path d="M390.032 141.124V161.351L418.072 141.124H390.032Z" fill="#7FA5C9"/>
<path d="M390.032 161.351H418.072V141.124L390.032 161.351Z" fill="#3E7CA5"/>
<path opacity="0.1" d="M390.032 161.351L362.037 181.577L334.042 201.836V222.063V242.289V262.516V282.775V303.001V323.228V343.454H362.037H390.032H418.072V323.228V303.001V282.775V262.516V242.289V222.063V201.836V181.577V161.351V141.124L390.032 161.351Z" fill="#414042"/>
<path d="M278.007 141.124H306.047V120.898L278.007 141.124Z" fill="#3E7CA5"/>
<path d="M306.047 120.898V141.124L334.042 120.898H306.047Z" fill="#7FA5C9"/>
<path d="M306.047 141.124H334.042V120.898L306.047 141.124Z" fill="#3E7CA5"/>
<path d="M334.042 120.898V141.124L362.037 120.898H334.042Z" fill="#7FA5C9"/>
<path d="M334.042 141.124H362.037V120.898L334.042 141.124Z" fill="#3E7CA5"/>
<path d="M362.037 120.898V141.124L390.032 120.898H362.037Z" fill="#7FA5C9"/>
<path d="M362.037 141.124H390.032V120.898L362.037 141.124Z" fill="#3E7CA5"/>
<path d="M390.032 120.898V141.124L418.072 120.898H390.032Z" fill="#7FA5C9"/>
<path d="M390.032 141.124H418.072V120.898L390.032 141.124Z" fill="#3E7CA5"/>
<path d="M306.047 120.898H334.042V100.639L306.047 120.898Z" fill="#3E7CA5"/>
<path d="M334.042 100.639V120.898L362.037 100.639H334.042Z" fill="#7FA5C9"/>
<path d="M334.042 120.898H362.037V100.639L334.042 120.898Z" fill="#3E7CA5"/>
<path d="M362.037 100.639V120.898L390.032 100.639H362.037Z" fill="#7FA5C9"/>
<path d="M362.037 120.898H390.032V100.639L362.037 120.898Z" fill="#3E7CA5"/>
<path d="M390.032 100.639V120.898L418.072 100.639H390.032Z" fill="#7FA5C9"/>
<path d="M390.032 120.898H418.072V100.639L390.032 120.898Z" fill="#3E7CA5"/>
<path d="M334.042 100.639H362.037V80.4122L334.042 100.639Z" fill="#3E7CA5"/>
<path d="M362.037 80.4122V100.639L390.032 80.4122H362.037Z" fill="#7FA5C9"/>
<path d="M362.037 100.639H390.032V80.4122L362.037 100.639Z" fill="#3E7CA5"/>
<path d="M390.032 80.4122V100.639L418.072 80.4122H390.032Z" fill="#7FA5C9"/>
<path d="M390.032 100.639H418.072V80.4122L390.032 100.639Z" fill="#3E7CA5"/>
<path d="M362.037 80.4123H390.032V60.1859L362.037 80.4123Z" fill="#3E7CA5"/>
<path d="M390.032 60.1859V80.4123L418.072 60.1859H390.032Z" fill="#7FA5C9"/>
<path d="M390.032 80.4123H418.072V60.1859L390.032 80.4123Z" fill="#3E7CA5"/>
<path d="M390.032 60.1859H418.072V39.9595L390.032 60.1859Z" fill="#3E7CA5"/>
<path d="M213.077 225.714V255.149L253.805 225.714H213.077Z" fill="white"/>
<path d="M213.077 255.149H253.805V225.714L213.077 255.149Z" fill="#FF817A"/>
<path d="M213.077 255.149V284.584L253.805 255.149H213.077Z" fill="white"/>
<path d="M213.077 284.584H253.805V255.149L213.077 284.584Z" fill="#FF817A"/>
<path d="M213.077 284.584V314.019L253.805 284.584H213.077Z" fill="white"/>
<path d="M213.077 314.019H253.805V284.584L213.077 314.019Z" fill="#FF817A"/>
<path d="M213.077 314.019V343.421L253.805 314.019H213.077Z" fill="white"/>
<path d="M213.077 343.421H253.805V314.019L213.077 343.421Z" fill="#FF817A"/>
<path d="M459.071 123.595H495.735V90.542L459.071 123.595Z" fill="white"/>
<path d="M456.091 307.737H450.582V343.487H456.091V307.737Z" fill="white"/>
<path d="M446.157 307.737H440.739V343.487H446.157V307.737Z" fill="white"/>
<path d="M485.892 307.737H480.383V343.487H485.892V307.737Z" fill="white"/>
<path d="M495.78 307.737H490.362V343.487H495.78V307.737Z" fill="white"/>
<path d="M466.025 307.737H460.516V343.487H466.025V307.737Z" fill="white"/>
<path d="M475.958 307.737H470.45V343.487H475.958V307.737Z" fill="white"/>
<path d="M466.025 142.999H460.516V166.514H466.025V142.999Z" fill="white"/>
<path d="M475.958 142.999H470.45V166.514H475.958V142.999Z" fill="white"/>
<path d="M485.892 142.999H480.383V166.514H485.892V142.999Z" fill="white"/>
<path d="M456.091 142.999H450.582V166.514H456.091V142.999Z" fill="white"/>
<path d="M446.157 142.999H440.739V166.514H446.157V142.999Z" fill="white"/>
<path d="M495.78 142.999H490.362V166.514H495.78V142.999Z" fill="white"/>
<path d="M475.958 123.595H470.45V142.999H475.958V123.595Z" fill="#FF8A5C"/>
<path d="M495.78 123.595H490.362V142.999H495.78V123.595Z" fill="#FF8A5C"/>
<path d="M466.025 123.595H460.516V142.999H466.025V123.595Z" fill="#FF8A5C"/>
<path d="M446.157 123.595H440.739V142.999H446.157V123.595Z" fill="#FF8A5C"/>
<path d="M485.892 123.595H480.383V142.999H485.892V123.595Z" fill="#FF8A5C"/>
<path d="M456.091 123.595H450.582V142.999H456.091V123.595Z" fill="#FF8A5C"/>
<path d="M485.892 166.547H480.383V190.062H485.892V166.547Z" fill="#FF8A5C"/>
<path d="M475.958 166.547H470.45V190.062H475.958V166.547Z" fill="#FF8A5C"/>
<path d="M466.025 166.547H460.516V190.062H466.025V166.547Z" fill="#FF8A5C"/>
<path d="M495.78 166.547H490.362V190.062H495.78V166.547Z" fill="#FF8A5C"/>
<path d="M446.157 166.547H440.739V190.062H446.157V166.547Z" fill="#FF8A5C"/>
<path d="M456.091 166.547H450.582V190.062H456.091V166.547Z" fill="#FF8A5C"/>
<path d="M450.582 307.737H446.157V343.487H450.582V307.737Z" fill="#D1D3D4"/>
<path d="M450.582 142.999H446.157V166.514H450.582V142.999Z" fill="#D1D3D4"/>
<path d="M450.582 123.595H446.157V142.999H450.582V123.595Z" fill="#E67C52"/>
<path d="M450.582 166.547H446.157V190.062H450.582V166.547Z" fill="#E67C52"/>
<path d="M460.516 307.737H456.091V343.487H460.516V307.737Z" fill="#D1D3D4"/>
<path d="M460.516 142.999H456.091V166.514H460.516V142.999Z" fill="#D1D3D4"/>
<path d="M460.516 123.595H456.091V142.999H460.516V123.595Z" fill="#E67C52"/>
<path d="M460.516 166.547H456.091V190.062H460.516V166.547Z" fill="#E67C52"/>
<path d="M470.45 307.737H466.025V343.487H470.45V307.737Z" fill="#D1D3D4"/>
<path d="M470.45 142.999H466.025V166.514H470.45V142.999Z" fill="#D1D3D4"/>
<path d="M470.45 123.595H466.025V142.999H470.45V123.595Z" fill="#E67C52"/>
<path d="M470.45 166.547H466.025V190.062H470.45V166.547Z" fill="#E67C52"/>
<path d="M480.383 307.737H475.958V343.487H480.383V307.737Z" fill="#D1D3D4"/>
<path d="M480.383 142.999H475.958V166.514H480.383V142.999Z" fill="#D1D3D4"/>
<path d="M480.383 123.595H475.958V142.999H480.383V123.595Z" fill="#E67C52"/>
<path d="M480.383 166.547H475.958V190.062H480.383V166.547Z" fill="#E67C52"/>
<path d="M490.317 307.737H485.892V343.487H490.317V307.737Z" fill="#D1D3D4"/>
<path d="M490.317 142.999H485.892V166.514H490.317V142.999Z" fill="#D1D3D4"/>
<path d="M490.317 123.595H485.892V142.999H490.317V123.595Z" fill="#E67C52"/>
<path d="M490.317 166.547H485.892V190.062H490.317V166.547Z" fill="#E67C52"/>
<path d="M569.651 324.543H524.724V343.454H569.651V324.543Z" fill="#3E7CA5"/>
<path d="M569.651 237.29H524.724V255.346H569.651V237.29Z" fill="#3E7CA5"/>
<path d="M569.651 259.095H524.724V277.151H569.651V259.095Z" fill="#3E7CA5"/>
<path d="M569.651 302.738H524.724V320.794H569.651V302.738Z" fill="#3E7CA5"/>
<path d="M569.651 196.278H524.724V211.736H569.651V196.278Z" fill="#3E7CA5"/>
<path d="M569.651 280.9H524.724V298.956H569.651V280.9Z" fill="#3E7CA5"/>
<path d="M569.651 215.485H524.724V233.541H569.651V215.485Z" fill="#3E7CA5"/>
<path d="M569.651 211.736H524.724V215.485H569.651V211.736Z" fill="#7FA5C9"/>
<path d="M569.651 233.541H524.724V237.29H569.651V233.541Z" fill="#7FA5C9"/>
<path d="M569.651 255.346H524.724V259.095H569.651V255.346Z" fill="#7FA5C9"/>
<path d="M569.651 277.151H524.724V280.9H569.651V277.151Z" fill="#7FA5C9"/>
<path d="M569.651 298.989H524.724V302.738H569.651V298.989Z" fill="#7FA5C9"/>
<path d="M569.651 320.794H524.724V324.543H569.651V320.794Z" fill="#7FA5C9"/>
<path d="M655.035 235.81H611.508V239.56H655.035V235.81Z" fill="#D8D9D9"/>
<path d="M655.035 266.035H611.508V269.784H655.035V266.035Z" fill="#D8D9D9"/>
<path d="M655.035 296.259H611.508V300.009H655.035V296.259Z" fill="#D8D9D9"/>
<path d="M655.035 326.484H611.508V330.233H655.035V326.484Z" fill="#D8D9D9"/>
<path d="M43.0761 316.222C41.3602 311.026 34.9485 307.145 27.2725 307.145V322.767L43.0761 316.222Z" fill="#007D4D"/>
<path d="M27.3176 307.145C18.3321 307.145 11.0625 312.44 11.0625 318.985C11.0625 322.307 12.9589 325.333 15.9842 327.47L27.2724 322.767V307.145H27.3176Z" fill="#008753"/>
<path d="M43.0761 316.223L27.2725 322.767L15.9843 327.47C18.9192 329.542 22.8927 330.825 27.2725 330.825C36.258 330.825 43.5276 325.53 43.5276 318.985C43.5728 318.031 43.3922 317.111 43.0761 316.223Z" fill="#007347"/>
<path d="M29.1688 343.487V327.076C29.1688 326.352 28.356 325.76 27.3626 325.76C26.3693 325.76 25.5565 326.352 25.5565 327.076V343.487H29.1688Z" fill="#6A5127"/>
<path d="M271.867 309.053C269.699 302.475 261.617 297.575 251.909 297.575V317.341L271.867 309.053Z" fill="#007D4D"/>
<path d="M251.909 297.575C240.576 297.575 231.364 304.284 231.364 312.539C231.364 316.749 233.757 320.564 237.595 323.261L251.864 317.341V297.575H251.909Z" fill="#008753"/>
<path d="M271.867 309.053L251.909 317.341L237.641 323.261C241.343 325.859 246.355 327.47 251.909 327.47C263.242 327.47 272.454 320.761 272.454 312.506C272.408 311.322 272.228 310.171 271.867 309.053Z" fill="#007347"/>
<path d="M254.212 343.487V322.767C254.212 321.847 253.218 321.123 251.954 321.123C250.69 321.123 249.696 321.847 249.696 322.767V343.487H254.212Z" fill="#6A5127"/>
<path d="M430.805 305.205C428.412 297.838 419.337 292.378 408.5 292.378V314.447L430.805 305.205Z" fill="#F57878"/>
<path d="M408.5 292.378C395.812 292.378 385.562 299.877 385.562 309.086C385.562 313.789 388.226 318.031 392.561 321.09L408.5 314.479V292.378Z" fill="#FF7D7D"/>
<path d="M430.805 305.205L408.5 314.447L392.561 321.057C396.67 323.984 402.314 325.793 408.5 325.793C421.188 325.793 431.437 318.295 431.437 309.086C431.437 307.737 431.212 306.455 430.805 305.205Z" fill="#E66F6F"/>
<path d="M411.119 343.684V320.531C411.119 319.511 409.99 318.689 408.59 318.689C407.19 318.689 406.062 319.511 406.062 320.531V343.684H411.119Z" fill="#6A5127"/>
<path d="M77.3926 321.585C76.038 317.408 70.8454 314.283 64.7046 314.283V326.847L77.3926 321.585Z" fill="#F57878"/>
<path d="M64.6591 314.249C57.4346 314.249 51.5647 318.525 51.5647 323.754C51.5647 326.451 53.0999 328.852 55.5382 330.595L64.6139 326.813V314.249H64.6591Z" fill="#FF7D7D"/>
<path d="M77.3924 321.583L64.7044 326.846L55.6287 330.628C57.9766 332.305 61.1825 333.325 64.7044 333.325C71.9289 333.325 77.7537 329.049 77.7537 323.82C77.7537 323.031 77.6182 322.274 77.3924 321.583Z" fill="#DF5867"/>
<path d="M66.1493 343.487V330.299C66.1493 329.707 65.5172 329.246 64.7044 329.246C63.8917 329.246 63.2595 329.707 63.2595 330.299V343.487H66.1493Z" fill="#6A5127"/>
<path d="M627.266 316.222C625.55 311.026 619.139 307.145 611.463 307.145V322.767L627.266 316.222Z" fill="#F0D978"/>
<path d="M611.508 307.145C602.522 307.145 595.253 312.44 595.253 318.985C595.253 322.307 597.149 325.333 600.174 327.47L611.463 322.767V307.145H611.508Z" fill="#FFE881"/>
<path d="M627.266 316.223L611.463 322.767L600.174 327.47C603.109 329.542 607.083 330.825 611.463 330.825C620.448 330.825 627.718 325.53 627.718 318.985C627.718 318.031 627.582 317.111 627.266 316.223Z" fill="#E0CA6F"/>
<path d="M613.359 343.454V327.043C613.359 326.319 612.546 325.727 611.553 325.727C610.56 325.727 609.747 326.319 609.747 327.043V343.454H613.359Z" fill="#6A5127"/>
<path d="M139.117 315.203C137.356 309.809 130.673 305.764 122.726 305.764V322.011L139.117 315.203Z" fill="#F0D978"/>
<path d="M122.726 305.764C113.424 305.764 105.839 311.256 105.839 318.064C105.839 321.518 107.825 324.642 110.986 326.878L122.726 322.011V305.764Z" fill="#FFE881"/>
<path d="M139.116 315.203L122.726 322.011L110.986 326.878C114.011 329.016 118.165 330.365 122.726 330.365C132.027 330.365 139.568 324.872 139.568 318.097C139.568 317.078 139.387 316.124 139.116 315.203Z" fill="#E0CA6F"/>
<path d="M124.622 343.487V326.451C124.622 325.694 123.81 325.102 122.771 325.102C121.733 325.102 120.92 325.694 120.92 326.451V343.487H124.622Z" fill="#6A5127"/>
<path d="M301.397 321.683C300.042 317.506 294.895 314.415 288.754 314.415V326.912L301.397 321.683Z" fill="#F0D978"/>
<path d="M288.754 314.381C281.574 314.381 275.75 318.623 275.75 323.853C275.75 326.517 277.285 328.918 279.723 330.661L288.799 326.911V314.381H288.754Z" fill="#FFE881"/>
<path d="M301.397 321.682L288.754 326.944L279.678 330.694C282.026 332.338 285.232 333.358 288.754 333.358C295.933 333.358 301.758 329.115 301.758 323.886C301.758 323.096 301.622 322.373 301.397 321.682Z" fill="#E0CA6F"/>
<path d="M290.199 343.487V330.332C290.199 329.74 289.566 329.279 288.754 329.279C287.941 329.279 287.309 329.74 287.309 330.332V343.487H290.199Z" fill="#6A5127"/>
<path d="M466.025 189.313H460.516V212.828H466.025V189.313Z" fill="white"/>
<path d="M475.958 189.313H470.45V212.828H475.958V189.313Z" fill="white"/>
<path d="M485.892 189.313H480.383V212.828H485.892V189.313Z" fill="white"/>
<path d="M456.091 189.313H450.582V212.828H456.091V189.313Z" fill="white"/>
<path d="M446.157 189.313H440.739V212.828H446.157V189.313Z" fill="white"/>
<path d="M495.78 189.313H490.362V212.828H495.78V189.313Z" fill="white"/>
<path d="M485.892 212.861H480.383V236.376H485.892V212.861Z" fill="#FF8A5C"/>
<path d="M475.958 212.861H470.45V236.376H475.958V212.861Z" fill="#FF8A5C"/>
<path d="M466.025 212.861H460.516V236.376H466.025V212.861Z" fill="#FF8A5C"/>
<path d="M495.78 212.861H490.362V236.376H495.78V212.861Z" fill="#FF8A5C"/>
<path d="M446.157 212.861H440.739V236.376H446.157V212.861Z" fill="#FF8A5C"/>
<path d="M456.091 212.861H450.582V236.376H456.091V212.861Z" fill="#FF8A5C"/>
<path d="M450.582 189.313H446.157V212.828H450.582V189.313Z" fill="#D1D3D4"/>
<path d="M450.582 212.861H446.157V236.376H450.582V212.861Z" fill="#E67C52"/>
<path d="M460.516 189.313H456.091V212.828H460.516V189.313Z" fill="#D1D3D4"/>
<path d="M460.516 212.861H456.091V236.376H460.516V212.861Z" fill="#E67C52"/>
<path d="M470.45 189.313H466.025V212.828H470.45V189.313Z" fill="#D1D3D4"/>
<path d="M470.45 212.861H466.025V236.376H470.45V212.861Z" fill="#E67C52"/>
<path d="M480.383 189.313H475.958V212.828H480.383V189.313Z" fill="#D1D3D4"/>
<path d="M480.383 212.861H475.958V236.376H480.383V212.861Z" fill="#E67C52"/>
<path d="M490.317 189.313H485.892V212.828H490.317V189.313Z" fill="#D1D3D4"/>
<path d="M490.317 212.861H485.892V236.376H490.317V212.861Z" fill="#E67C52"/>
<path d="M466.025 237.126H460.516V260.641H466.025V237.126Z" fill="white"/>
<path d="M475.958 237.126H470.45V260.641H475.958V237.126Z" fill="white"/>
<path d="M485.892 237.126H480.383V260.641H485.892V237.126Z" fill="white"/>
<path d="M456.091 237.126H450.582V260.641H456.091V237.126Z" fill="white"/>
<path d="M446.157 237.126H440.739V260.641H446.157V237.126Z" fill="white"/>
<path d="M495.78 237.126H490.362V260.641H495.78V237.126Z" fill="white"/>
<path d="M485.892 260.674H480.383V284.189H485.892V260.674Z" fill="#FF8A5C"/>
<path d="M475.958 260.674H470.45V284.189H475.958V260.674Z" fill="#FF8A5C"/>
<path d="M466.025 260.674H460.516V284.189H466.025V260.674Z" fill="#FF8A5C"/>
<path d="M495.78 260.674H490.362V284.189H495.78V260.674Z" fill="#FF8A5C"/>
<path d="M446.157 260.674H440.739V284.189H446.157V260.674Z" fill="#FF8A5C"/>
<path d="M456.091 260.674H450.582V284.189H456.091V260.674Z" fill="#FF8A5C"/>
<path d="M450.582 237.126H446.157V260.641H450.582V237.126Z" fill="#D1D3D4"/>
<path d="M450.582 260.674H446.157V284.189H450.582V260.674Z" fill="#E67C52"/>
<path d="M460.516 237.126H456.091V260.641H460.516V237.126Z" fill="#D1D3D4"/>
<path d="M460.516 260.674H456.091V284.189H460.516V260.674Z" fill="#E67C52"/>
<path d="M470.45 237.126H466.025V260.641H470.45V237.126Z" fill="#D1D3D4"/>
<path d="M470.45 260.674H466.025V284.189H470.45V260.674Z" fill="#E67C52"/>
<path d="M480.383 237.126H475.958V260.641H480.383V237.126Z" fill="#D1D3D4"/>
<path d="M480.383 260.674H475.958V284.189H480.383V260.674Z" fill="#E67C52"/>
<path d="M490.317 237.126H485.892V260.641H490.317V237.126Z" fill="#D1D3D4"/>
<path d="M490.317 260.674H485.892V284.189H490.317V260.674Z" fill="#E67C52"/>
<path d="M466.025 284.189H460.516V307.704H466.025V284.189Z" fill="white"/>
<path d="M475.958 284.189H470.45V307.704H475.958V284.189Z" fill="white"/>
<path d="M485.892 284.189H480.383V307.704H485.892V284.189Z" fill="white"/>
<path d="M456.091 284.189H450.582V307.704H456.091V284.189Z" fill="white"/>
<path d="M446.157 284.189H440.739V307.704H446.157V284.189Z" fill="white"/>
<path d="M495.78 284.189H490.362V307.704H495.78V284.189Z" fill="white"/>
<path d="M485.892 307.737H480.383V331.253H485.892V307.737Z" fill="#FF8A5C"/>
<path d="M475.958 307.737H470.45V331.253H475.958V307.737Z" fill="#FF8A5C"/>
<path d="M466.025 307.737H460.516V331.253H466.025V307.737Z" fill="#FF8A5C"/>
<path d="M495.78 307.737H490.362V331.253H495.78V307.737Z" fill="#FF8A5C"/>
<path d="M446.157 307.737H440.739V331.253H446.157V307.737Z" fill="#FF8A5C"/>
<path d="M456.091 307.737H450.582V331.253H456.091V307.737Z" fill="#FF8A5C"/>
<path d="M450.582 284.189H446.157V307.704H450.582V284.189Z" fill="#D1D3D4"/>
<path d="M450.582 307.737H446.157V331.253H450.582V307.737Z" fill="#E67C52"/>
<path d="M460.516 284.189H456.091V307.704H460.516V284.189Z" fill="#D1D3D4"/>
<path d="M460.516 307.737H456.091V331.253H460.516V307.737Z" fill="#E67C52"/>
<path d="M470.45 284.189H466.025V307.704H470.45V284.189Z" fill="#D1D3D4"/>
<path d="M470.45 307.737H466.025V331.253H470.45V307.737Z" fill="#E67C52"/>
<path d="M480.383 284.189H475.958V307.704H480.383V284.189Z" fill="#D1D3D4"/>
<path d="M480.383 307.737H475.958V331.253H480.383V307.737Z" fill="#E67C52"/>
<path d="M490.317 284.189H485.892V307.704H490.317V284.189Z" fill="#D1D3D4"/>
<path d="M490.317 307.737H485.892V331.253H490.317V307.737Z" fill="#E67C52"/>
<path d="M708 356.544H0V414H708V356.544Z" fill="#42424A"/>
<path d="M27.3176 383.085H0V387.459H27.3176V383.085Z" fill="white"/>
<path d="M69.8517 383.085H42.5341V387.459H69.8517V383.085Z" fill="white"/>
<path d="M112.386 383.085H85.0685V387.459H112.386V383.085Z" fill="white"/>
<path d="M154.965 383.085H127.648V387.459H154.965V383.085Z" fill="white"/>
<path d="M197.499 383.085H170.182V387.459H197.499V383.085Z" fill="white"/>
<path d="M240.034 383.085H212.716V387.459H240.034V383.085Z" fill="white"/>
<path d="M282.568 383.085H255.25V387.459H282.568V383.085Z" fill="white"/>
<path d="M325.102 383.085H297.784V387.459H325.102V383.085Z" fill="white"/>
<path d="M367.681 383.085H340.364V387.459H367.681V383.085Z" fill="white"/>
<path d="M410.216 383.085H382.898V387.459H410.216V383.085Z" fill="white"/>
<path d="M452.75 383.085H425.432V387.459H452.75V383.085Z" fill="white"/>
<path d="M495.284 383.085H467.966V387.459H495.284V383.085Z" fill="white"/>
<path d="M537.818 383.085H510.5V387.459H537.818V383.085Z" fill="white"/>
<path d="M580.397 383.085H553.08V387.459H580.397V383.085Z" fill="white"/>
<path d="M622.932 383.085H595.614V387.459H622.932V383.085Z" fill="white"/>
<path d="M665.466 383.085H638.148V387.459H665.466V383.085Z" fill="white"/>
<path d="M708 383.085H680.682V387.459H708V383.085Z" fill="white"/>
<path d="M521.247 309.809C519.125 303.363 511.223 298.594 501.741 298.594V317.933L521.247 309.809Z" fill="#007D4D"/>
<path d="M501.696 298.594C490.588 298.594 481.602 305.139 481.602 313.23C481.602 317.341 483.95 321.057 487.698 323.721L501.65 317.933V298.594H501.696Z" fill="#008753"/>
<path d="M521.247 309.809L501.741 317.9L487.789 323.688C491.401 326.254 496.322 327.832 501.741 327.832C512.848 327.832 521.834 321.287 521.834 313.197C521.789 312.046 521.563 310.895 521.247 309.809Z" fill="#007347"/>
<path d="M503.998 343.487V323.228C503.998 322.34 503.005 321.616 501.786 321.616C500.567 321.616 499.573 322.34 499.573 323.228V343.487H503.998Z" fill="#6A5127"/>
<path d="M451.44 319.149C449.905 314.512 444.171 311.026 437.352 311.026V325.004L451.44 319.149Z" fill="#007D4D"/>
<path d="M437.353 311.026C429.36 311.026 422.858 315.762 422.858 321.583C422.858 324.543 424.574 327.24 427.283 329.181L437.398 325.004V311.026H437.353Z" fill="#008753"/>
<path d="M451.44 319.15L437.352 325.004L427.238 329.181C429.857 331.022 433.424 332.173 437.352 332.173C445.345 332.173 451.847 327.437 451.847 321.616C451.847 320.761 451.711 319.939 451.44 319.15Z" fill="#007347"/>
<path d="M439.023 343.487V328.852C439.023 328.194 438.301 327.701 437.443 327.701C436.585 327.701 435.863 328.227 435.863 328.852V343.487H439.023Z" fill="#6A5127"/>
<path d="M683.843 316.222C682.127 311.026 675.715 307.145 668.039 307.145V322.767L683.843 316.222Z" fill="#007D4D"/>
<path d="M668.039 307.145C659.054 307.145 651.784 312.44 651.784 318.985C651.784 322.307 653.681 325.333 656.706 327.47L667.994 322.767V307.145H668.039Z" fill="#008753"/>
<path d="M683.843 316.223L668.04 322.767L656.751 327.47C659.686 329.542 663.66 330.825 668.04 330.825C677.025 330.825 684.295 325.53 684.295 318.985C684.295 318.031 684.114 317.111 683.843 316.223Z" fill="#007347"/>
<path d="M669.891 343.487V327.076C669.891 326.352 669.078 325.76 668.085 325.76C667.091 325.76 666.279 326.352 666.279 327.076V343.487H669.891Z" fill="#6A5127"/>
<path d="M664.517 321.585C663.163 317.408 657.97 314.283 651.829 314.283V326.847L664.517 321.585Z" fill="#F57878"/>
<path d="M651.784 314.249C644.56 314.249 638.735 318.525 638.735 323.754C638.735 326.451 640.27 328.852 642.709 330.595L651.784 326.813V314.249Z" fill="#FF7D7D"/>
<path d="M664.518 321.583L651.83 326.846L642.754 330.628C645.102 332.305 648.308 333.325 651.83 333.325C659.054 333.325 664.924 329.049 664.924 323.82C664.879 323.031 664.743 322.274 664.518 321.583Z" fill="#E66F6F"/>
<path d="M653.274 343.487V330.299C653.274 329.707 652.642 329.246 651.83 329.246C651.017 329.246 650.385 329.707 650.385 330.299V343.487H653.274Z" fill="#6A5127"/>
<path d="M323.386 316.255C321.67 311.059 315.259 307.178 307.583 307.178V322.8L323.386 316.255Z" fill="#F57878"/>
<path d="M307.583 307.178C298.597 307.178 291.328 312.473 291.328 319.018C291.328 322.34 293.224 325.366 296.249 327.503L307.537 322.8V307.178H307.583Z" fill="#FF7D7D"/>
<path d="M323.386 316.255L307.583 322.8L296.294 327.503C299.229 329.575 303.203 330.858 307.583 330.858C316.568 330.858 323.838 325.563 323.838 319.018C323.838 318.064 323.657 317.143 323.386 316.255Z" fill="#E66F6F"/>
<path d="M309.434 343.52V327.109C309.434 326.385 308.621 325.793 307.628 325.793C306.634 325.793 305.822 326.385 305.822 327.109V343.52H309.434Z" fill="#6A5127"/>
<path d="M152.12 323.951C150.901 320.235 146.296 317.439 140.832 317.439V328.654L152.12 323.951Z" fill="#007D4D"/>
<path d="M140.787 317.474C134.375 317.474 129.138 321.256 129.138 325.959C129.138 328.36 130.492 330.497 132.66 332.043L140.742 328.688V317.474H140.787Z" fill="#008753"/>
<path d="M152.121 323.951L140.832 328.654L132.75 332.009C134.827 333.489 137.717 334.41 140.832 334.41C147.244 334.41 152.482 330.628 152.482 325.925C152.437 325.267 152.346 324.609 152.121 323.951Z" fill="#007347"/>
<path d="M142.142 343.487V331.746C142.142 331.22 141.555 330.825 140.877 330.825C140.155 330.825 139.613 331.253 139.613 331.746V343.487H142.142Z" fill="#6A5127"/>
<path d="M228.565 147.209C225.133 140.532 216.373 136.093 206.575 136.093C196.055 136.093 186.979 141.092 184.044 148.393C182.147 147.801 180.116 147.472 178.038 147.472C169.64 147.472 162.822 152.438 162.822 158.555C162.822 160.035 163.228 161.482 163.996 162.831C164.176 163.127 164.583 163.324 164.989 163.324H239.537C240.034 163.324 240.485 163.061 240.621 162.732C240.982 161.68 241.162 160.627 241.162 159.608C241.117 153.918 235.97 148.886 228.565 147.209Z" fill="#C8DDF0"/>
<path d="M73.9607 121.753C76.4893 116.82 82.9914 113.531 90.2158 113.531C98.0273 113.531 104.71 117.247 106.877 122.608C108.277 122.181 109.812 121.95 111.347 121.95C117.579 121.95 122.591 125.634 122.591 130.14C122.591 131.225 122.32 132.31 121.733 133.297C121.597 133.527 121.326 133.659 120.965 133.659H65.8783C65.5171 133.659 65.2011 133.461 65.1107 133.198C64.8398 132.409 64.7044 131.653 64.7044 130.896C64.6592 126.719 68.4972 123.003 73.9607 121.753Z" fill="#C8DDF0"/>
<path d="M352.645 64.9547C354.181 62.9485 354.993 60.7121 354.993 58.4099C354.993 51.0429 346.775 45.0572 336.661 45.0572C334.268 45.0572 331.965 45.386 329.753 46.0438C325.418 39.1701 316.026 34.7631 305.551 34.7631C295.572 34.7631 286.632 38.7097 281.981 45.1558C281.258 45.09 280.626 45.0572 279.994 45.0572C274.214 45.0572 268.841 47.0305 265.41 50.3522C263.107 49.1682 260.352 48.5104 257.553 48.5104C250.058 48.5104 243.962 52.9504 243.962 58.4099C243.962 60.8765 245.226 63.2774 247.574 65.0862C247.8 65.2507 248.071 65.3493 248.387 65.3493H351.697C352.058 65.3822 352.42 65.2178 352.645 64.9547Z" fill="#C8DDF0"/>
<path d="M621.577 128.693C621.126 128.693 620.629 128.725 620.087 128.758C617.423 125.831 613.043 124.088 608.257 124.088C607.354 124.088 606.406 124.154 605.367 124.351C603.832 121.128 599.678 118.925 594.937 118.925C589.88 118.925 585.59 121.358 584.281 124.845C582.565 124.351 580.804 124.088 579.043 124.088C571.186 124.088 564.775 128.758 564.775 134.481C564.775 137.836 567.032 140.993 570.825 142.933C570.96 142.999 571.186 143.065 571.367 143.065H628.124C628.35 143.065 628.576 142.999 628.711 142.9C631.195 141.355 632.64 139.118 632.64 136.783C632.685 132.343 627.718 128.693 621.577 128.693Z" fill="#C8DDF0"/>
<path d="M56.306 184.34C56.7575 184.34 57.2542 184.373 57.796 184.406C60.46 181.478 64.8399 179.735 69.6261 179.735C70.5292 179.735 71.4774 179.801 72.5159 179.998C74.0511 176.775 78.2052 174.572 82.9463 174.572C88.0034 174.572 92.293 177.006 93.6024 180.492C95.3182 179.998 97.0792 179.735 98.8401 179.735C106.697 179.735 113.109 184.406 113.109 190.128C113.109 193.483 110.851 196.64 107.058 198.58C106.877 198.646 106.697 198.712 106.516 198.712H49.7588C49.533 198.712 49.3072 198.646 49.1718 198.548C46.6884 197.002 45.2435 194.765 45.2435 192.43C45.1983 187.99 50.2103 184.34 56.306 184.34Z" fill="white"/>
<path d="M575.295 61.2712C564.684 61.2712 555.112 66.0072 551.138 73.1111C550.777 73.0782 550.461 73.0782 550.1 73.0782C540.979 73.0782 533.619 78.4719 533.619 85.1154C533.619 88.2398 535.289 91.2326 538.27 93.469C538.54 93.6664 538.857 93.765 539.218 93.765H593.085C593.447 93.765 593.808 93.6664 594.034 93.469C598.775 89.8842 601.394 85.214 601.394 80.2479C601.394 69.7894 589.654 61.2712 575.295 61.2712Z" fill="white"/>
<path d="M194.158 77.5181C204.769 77.5181 214.342 82.254 218.315 89.3579C218.676 89.325 218.992 89.325 219.354 89.325C228.474 89.325 235.834 94.7187 235.834 101.362C235.834 104.487 234.164 107.479 231.184 109.716C230.913 109.913 230.597 110.012 230.235 110.012H176.368C176.007 110.012 175.645 109.913 175.42 109.716C170.679 106.131 168.06 101.461 168.06 96.4947C168.06 86.0362 179.754 77.5181 194.158 77.5181Z" fill="white"/>
<path d="M613.314 169.408C619.139 169.408 624.376 172.007 626.544 175.92C626.724 175.92 626.905 175.92 627.131 175.92C632.143 175.92 636.161 178.88 636.161 182.498C636.161 184.208 635.258 185.853 633.588 187.07C633.452 187.168 633.272 187.234 633.046 187.234H603.516C603.335 187.234 603.109 187.168 602.974 187.07C600.355 185.096 598.955 182.531 598.955 179.834C599 174.079 605.412 169.408 613.314 169.408Z" fill="white"/>
</svg>
