<svg width="30" height="30" viewBox="0 0 30 30" fill="none" xmlns="http://www.w3.org/2000/svg">
<path d="M1.47803 9.22571H28.5219V28.522H1.47803V9.22571Z" fill="#DFEEF4"/>
<path d="M1.47803 3.71204H28.5219V9.2257H1.47803V3.71204Z" fill="#DF5867"/>
<path d="M14.1255 1.47797H15.8744V5.94562H14.1255V1.47797Z" fill="#42424A"/>
<path d="M21.106 1.47797H22.8549V5.94562H21.106V1.47797Z" fill="#42424A"/>
<path d="M7.14453 1.47797H8.89344V5.94562H7.14453V1.47797Z" fill="#42424A"/>
<path d="M6.48331 14.8432C7.29659 14.8432 7.95589 14.1839 7.95589 13.3706C7.95589 12.5573 7.29659 11.898 6.48331 11.898C5.67004 11.898 5.01074 12.5573 5.01074 13.3706C5.01074 14.1839 5.67004 14.8432 6.48331 14.8432Z" fill="#3E7CA5"/>
<path d="M12.1615 14.8432C12.9748 14.8432 13.6341 14.1839 13.6341 13.3706C13.6341 12.5573 12.9748 11.898 12.1615 11.898C11.3483 11.898 10.689 12.5573 10.689 13.3706C10.689 14.1839 11.3483 14.8432 12.1615 14.8432Z" fill="#3E7CA5"/>
<path d="M17.8393 14.8432C18.6526 14.8432 19.3119 14.1839 19.3119 13.3706C19.3119 12.5573 18.6526 11.898 17.8393 11.898C17.026 11.898 16.3667 12.5573 16.3667 13.3706C16.3667 14.1839 17.026 14.8432 17.8393 14.8432Z" fill="#3E7CA5"/>
<path d="M23.517 14.8432C24.3303 14.8432 24.9896 14.1839 24.9896 13.3706C24.9896 12.5573 24.3303 11.898 23.517 11.898C22.7037 11.898 22.0444 12.5573 22.0444 13.3706C22.0444 14.1839 22.7037 14.8432 23.517 14.8432Z" fill="#3E7CA5"/>
<path d="M6.48331 20.3463C7.29659 20.3463 7.95589 19.687 7.95589 18.8738C7.95589 18.0605 7.29659 17.4012 6.48331 17.4012C5.67004 17.4012 5.01074 18.0605 5.01074 18.8738C5.01074 19.687 5.67004 20.3463 6.48331 20.3463Z" fill="#3E7CA5"/>
<path d="M12.1615 20.3463C12.9748 20.3463 13.6341 19.687 13.6341 18.8738C13.6341 18.0605 12.9748 17.4012 12.1615 17.4012C11.3483 17.4012 10.689 18.0605 10.689 18.8738C10.689 19.687 11.3483 20.3463 12.1615 20.3463Z" fill="#3E7CA5"/>
<path d="M17.8393 20.3463C18.6526 20.3463 19.3119 19.687 19.3119 18.8738C19.3119 18.0605 18.6526 17.4012 17.8393 17.4012C17.026 17.4012 16.3667 18.0605 16.3667 18.8738C16.3667 19.687 17.026 20.3463 17.8393 20.3463Z" fill="#3E7CA5"/>
<path d="M23.517 20.3463C24.3303 20.3463 24.9896 19.687 24.9896 18.8738C24.9896 18.0605 24.3303 17.4012 23.517 17.4012C22.7037 17.4012 22.0444 18.0605 22.0444 18.8738C22.0444 19.687 22.7037 20.3463 23.517 20.3463Z" fill="#3E7CA5"/>
<path d="M6.48331 25.8497C7.29659 25.8497 7.95589 25.1904 7.95589 24.3771C7.95589 23.5638 7.29659 22.9045 6.48331 22.9045C5.67004 22.9045 5.01074 23.5638 5.01074 24.3771C5.01074 25.1904 5.67004 25.8497 6.48331 25.8497Z" fill="#3E7CA5"/>
<path d="M12.1615 25.8497C12.9748 25.8497 13.6341 25.1904 13.6341 24.3771C13.6341 23.5638 12.9748 22.9045 12.1615 22.9045C11.3483 22.9045 10.689 23.5638 10.689 24.3771C10.689 25.1904 11.3483 25.8497 12.1615 25.8497Z" fill="#3E7CA5"/>
<path d="M17.8393 25.8497C18.6526 25.8497 19.3119 25.1904 19.3119 24.3771C19.3119 23.5638 18.6526 22.9045 17.8393 22.9045C17.026 22.9045 16.3667 23.5638 16.3667 24.3771C16.3667 25.1904 17.026 25.8497 17.8393 25.8497Z" fill="#3E7CA5"/>
<path d="M23.517 25.8497C24.3303 25.8497 24.9896 25.1904 24.9896 24.3771C24.9896 23.5638 24.3303 22.9045 23.517 22.9045C22.7037 22.9045 22.0444 23.5638 22.0444 24.3771C22.0444 25.1904 22.7037 25.8497 23.517 25.8497Z" fill="#3E7CA5"/>
</svg>
