<svg width="31" height="30" viewBox="0 0 31 30" fill="none" xmlns="http://www.w3.org/2000/svg">
<g clip-path="url(#clip0)">
<path d="M24.2882 7.5363L23.4411 4.65339C23.3497 4.3422 23.0649 4.12849 22.7415 4.12837H15.2005C14.877 4.12843 14.5921 4.34214 14.5008 4.65339L13.6548 7.5363H24.2882Z" fill="#DBD8DD"/>
<path d="M5.68758 5.58598H7.98151C8.18299 5.58598 8.34634 5.74979 8.34634 5.95185V7.37684H5.32275V5.95179C5.32275 5.74973 5.4861 5.58598 5.68758 5.58598Z" fill="#575B6D"/>
<path d="M30.2674 8.60349V11.4535H0.353029V8.60349C0.351837 7.80661 0.995027 7.15961 1.78964 7.15836H1.79036H28.83C29.6245 7.16039 30.2674 7.80679 30.2674 8.60349Z" fill="#DBD8DD"/>
<path d="M30.2673 21.5802V24.4302C30.2671 25.2261 29.6237 25.8714 28.83 25.8716H1.79071C0.997885 25.8728 0.354219 25.2292 0.353027 24.4342C0.353027 24.4328 0.353027 24.4315 0.353027 24.4302V21.5802H30.2673Z" fill="#DBD8DD"/>
<path d="M0.352539 11.4516H30.2669V21.5812H0.352539V11.4516Z" fill="#575B6D"/>
<path d="M19.3067 23.6025C23.2091 23.6025 26.3727 20.43 26.3727 16.5164C26.3727 12.6029 23.2091 9.43031 19.3067 9.43031C15.4043 9.43031 12.2407 12.6029 12.2407 16.5164C12.2407 20.43 15.4043 23.6025 19.3067 23.6025Z" fill="#414451"/>
<path d="M19.3066 22.2054C22.4396 22.2054 24.9794 19.6584 24.9794 16.5164C24.9794 13.3745 22.4396 10.8275 19.3066 10.8275C16.1736 10.8275 13.6338 13.3745 13.6338 16.5164C13.6338 19.6584 16.1736 22.2054 19.3066 22.2054Z" fill="#575B6D"/>
<path d="M19.3065 21.5125C22.0579 21.5125 24.2883 19.2757 24.2883 16.5164C24.2883 13.7572 22.0579 11.5204 19.3065 11.5204C16.5551 11.5204 14.3247 13.7572 14.3247 16.5164C14.3247 19.2757 16.5551 21.5125 19.3065 21.5125Z" fill="#69B0EE"/>
<path d="M19.3067 19.433C20.9129 19.433 22.215 18.1272 22.215 16.5164C22.215 14.9057 20.9129 13.5999 19.3067 13.5999C17.7005 13.5999 16.3984 14.9057 16.3984 16.5164C16.3984 18.1272 17.7005 19.433 19.3067 19.433Z" fill="#419BE9"/>
<path d="M17.4238 16.2567C18.1553 16.2567 18.7484 15.6619 18.7484 14.9283C18.7484 14.1946 18.1553 13.5999 17.4238 13.5999C16.6922 13.5999 16.0991 14.1946 16.0991 14.9283C16.0991 15.6619 16.6922 16.2567 17.4238 16.2567Z" fill="#EEEFEE"/>
<path d="M3.76189 10.2582C4.24846 10.2582 4.64291 9.86264 4.64291 9.37467C4.64291 8.88671 4.24846 8.49113 3.76189 8.49113C3.27531 8.49113 2.88086 8.88671 2.88086 9.37467C2.88086 9.86264 3.27531 10.2582 3.76189 10.2582Z" fill="#EF5261"/>
<path d="M7.64079 10.2582C8.12737 10.2582 8.52182 9.86264 8.52182 9.37467C8.52182 8.88671 8.12737 8.49113 7.64079 8.49113C7.15421 8.49113 6.75977 8.88671 6.75977 9.37467C6.75977 9.86264 7.15421 10.2582 7.64079 10.2582Z" fill="#2CBFAE"/>
<path d="M22.262 5.10634L22.9916 7.37787H14.9512L15.6808 5.10634H22.262Z" fill="#575B6D"/>
</g>
<defs>
<clipPath id="clip0">
<rect width="29.9147" height="30" fill="white" transform="translate(0.352539)"/>
</clipPath>
</defs>
</svg>
