<svg width="193" height="193" viewBox="0 0 193 193" fill="none" xmlns="http://www.w3.org/2000/svg">
<path d="M1.52588e-05 102.59V112.575C1.52588e-05 112.575 3.18565 118.186 5.29131 119.061H43.4826L46.2881 118.186L47.5189 120.992H142.828L143.082 120.901L147.383 119.411L179.795 123.616C179.795 123.616 180.82 123.568 182.293 123.375C186.419 122.838 194.04 121.167 192.236 116.256C192.236 116.256 193.955 106.946 192.236 101.54C192.236 101.54 191.711 94.0046 185.231 91.3741C178.745 88.7496 159.649 83.6634 149.139 82.0947C149.139 82.0947 139.854 79.2892 135.824 75.6089C135.824 75.6089 126.731 68.8153 115.503 63.892C109.452 61.2434 102.978 59.6807 96.4014 59.0653C83.677 57.8707 56.02 56.0305 38.4146 60.3625C23.4578 64.0489 13.545 72.4956 8.32608 78.1429C5.46022 81.244 3.89758 85.2924 3.89758 89.5158V93.3048L2.67281 97.685C2.66678 97.685 1.52588e-05 99.6097 1.52588e-05 102.59Z" fill="#DF5867"/>
<path d="M143.003 119.122C143.003 119.719 143.027 120.316 143.082 120.901L147.383 119.411L179.795 123.616C179.795 123.616 180.82 123.568 182.293 123.375C182.594 122.006 182.751 120.582 182.751 119.122C182.751 108.147 173.852 99.2477 162.877 99.2477C151.902 99.2477 143.003 108.147 143.003 119.122Z" fill="#2E3235"/>
<path d="M162.877 135.363C153.907 135.363 146.635 128.092 146.635 119.122C146.635 110.151 153.907 102.88 162.877 102.88C171.847 102.88 179.119 110.151 179.119 119.122C179.119 128.092 171.847 135.363 162.877 135.363Z" fill="#3E4347"/>
<path d="M46.6682 119.049L46.2881 118.18L43.4826 119.055H6.92633C6.96253 108.111 15.8437 99.2477 26.7943 99.2477C37.7509 99.2477 46.632 108.111 46.6682 119.049Z" fill="#2E3235"/>
<path d="M26.8004 135.363C17.8302 135.363 10.5585 128.092 10.5585 119.122C10.5585 110.151 17.8302 102.88 26.8004 102.88C35.7705 102.88 43.0422 110.151 43.0422 119.122C43.0422 128.092 35.7705 135.363 26.8004 135.363Z" fill="#3E4347"/>
<path d="M84.588 62.8422C87.9607 62.9568 90.0965 63.0715 90.1387 63.0775L90.2594 63.0835H90.3801C90.7179 63.0715 91.0558 63.0715 91.3937 63.0715C106.121 63.0715 120.794 71.8199 128.234 77.0327C131.594 79.3857 134.237 82.6981 135.769 86.4388L88.8355 82.692L84.588 62.8422Z" fill="#3E4347"/>
<path d="M40.7434 65.7805C45.4072 63.7412 56.5147 62.619 72.0688 62.619C73.8908 62.619 75.6586 62.6371 77.3238 62.6612L79.0132 81.9017L32.5018 78.1911C32.351 77.3223 32.2243 76.4958 32.1338 75.7416L32.1278 75.6813L32.1157 75.6209C31.627 72.7732 36.9243 68.1094 40.7434 65.7805Z" fill="#3E4347"/>
<path d="M188.845 98.596C188.845 98.596 182.383 91.0724 175.143 91.6395C173.381 91.7783 168.114 94.1373 176.35 98.596C178.926 99.9897 183.994 100.81 187.849 100.871C190.975 100.913 188.845 98.596 188.845 98.596Z" fill="#FFD83B"/>
<path d="M3.89146 93.3048V89.5158C3.89146 87.8807 4.19312 86.294 4.64563 84.7554C7.25205 84.4296 10.5161 84.2667 11.578 85.3286C12.9898 86.7404 12.9898 91.905 11.578 93.3168C10.3954 94.4994 6.44961 94.1675 3.76476 93.7754L3.89146 93.3048Z" fill="#FFD83B"/>
<path d="M162.877 129.964C156.889 129.964 152.035 125.109 152.035 119.122C152.035 113.134 156.889 108.28 162.877 108.28C168.865 108.28 173.719 113.134 173.719 119.122C173.719 125.109 168.865 129.964 162.877 129.964Z" fill="#CBD6E0"/>
<path d="M162.877 127.967C157.992 127.967 154.032 124.007 154.032 119.122C154.032 114.237 157.992 110.277 162.877 110.277C167.762 110.277 171.722 114.237 171.722 119.122C171.722 124.007 167.762 127.967 162.877 127.967Z" fill="#939799"/>
<path d="M162.877 125.487C159.362 125.487 156.512 122.637 156.512 119.122C156.512 115.606 159.362 112.756 162.877 112.756C166.393 112.756 169.242 115.606 169.242 119.122C169.242 122.637 166.393 125.487 162.877 125.487Z" fill="#CBD6E0"/>
<path d="M26.8003 129.964C20.8125 129.964 15.9583 125.109 15.9583 119.122C15.9583 113.134 20.8125 108.28 26.8003 108.28C32.7882 108.28 37.6423 113.134 37.6423 119.122C37.6423 125.109 32.7882 129.964 26.8003 129.964Z" fill="#CBD6E0"/>
<path d="M26.8003 127.967C21.9154 127.967 17.9554 124.007 17.9554 119.122C17.9554 114.237 21.9154 110.277 26.8003 110.277C31.6852 110.277 35.6453 114.237 35.6453 119.122C35.6453 124.007 31.6852 127.967 26.8003 127.967Z" fill="#939799"/>
<path d="M26.8003 125.487C23.2849 125.487 20.4351 122.637 20.4351 119.122C20.4351 115.606 23.2849 112.756 26.8003 112.756C30.3157 112.756 33.1655 115.606 33.1655 119.122C33.1655 122.637 30.3157 125.487 26.8003 125.487Z" fill="#CBD6E0"/>
<path d="M124.794 85.5579L114.918 84.7675L102.495 64.5677C106.815 65.6779 110.912 67.3129 114.683 69.1169L124.794 85.5579Z" fill="#5A5F63"/>
<path d="M111.437 84.49L106.284 84.0797L93.4511 63.2102C95.2189 63.3068 96.9746 63.4998 98.7182 63.8075L111.437 84.49Z" fill="#5A5F63"/>
<path d="M76.3284 81.6905L66.4517 80.9001L55.5494 63.168C58.3006 62.9629 61.3535 62.812 64.6719 62.7276L76.3284 81.6905Z" fill="#5A5F63"/>
<path d="M62.9764 80.6226L57.8239 80.2123L47.8628 64.0127C49.2505 63.7955 50.7407 63.5964 52.406 63.4335L62.9764 80.6226Z" fill="#5A5F63"/>
</svg>
