<svg width="98" height="98" viewBox="0 0 98 98" fill="none" xmlns="http://www.w3.org/2000/svg">
<g clip-path="url(#clip0)">
<path d="M2.80028 38.0489C0.973308 38.0489 -0.363856 39.771 0.0886282 41.5411L1.45699 46.893C1.77377 48.1318 2.88986 48.9987 4.16864 48.9987H17.9258V38.0491L2.80028 38.0489Z" fill="#B34647"/>
<path d="M95.1997 38.0489C97.0267 38.0489 98.3638 39.771 97.9114 41.5411L96.543 46.893C96.2262 48.1318 95.1101 48.9987 93.8313 48.9987H80.0742V38.0491L95.1997 38.0489Z" fill="#CC5051"/>
<path d="M14.7656 67.6395V84.2976C14.7656 86.5817 16.6173 88.4331 18.9011 88.4331H22.7947C25.0788 88.4331 26.9303 86.5817 26.9303 84.2976V67.6395H14.7656Z" fill="#353640"/>
<path d="M12.8901 59.882L14.867 29.5096C15.5947 18.3267 24.9432 9.56702 36.1496 9.56702H61.8509C73.0574 9.56702 82.406 18.3271 83.1336 29.5098L85.1102 59.8822L12.8901 59.882Z" fill="#DF5867"/>
<path d="M74.5378 30.0687C74.1025 23.3816 68.5518 18.1803 61.8506 18.1803H36.1493C29.4482 18.1803 23.8974 23.3816 23.4622 30.0687L22.0825 51.2683H75.9174L74.5378 30.0687Z" fill="#7DD2F0"/>
<path opacity="0.1" d="M51.2232 9.56665H36.1494C24.9429 9.56665 15.5945 18.3265 14.8667 29.5093L12.8899 59.8816H27.9637L29.9406 29.5093C30.6683 18.3265 40.017 9.56665 51.2232 9.56665Z" fill="black"/>
<path d="M83.2345 67.6395V84.2976C83.2345 86.5817 81.3828 88.4331 79.0989 88.4331H75.2053C72.9213 88.4331 71.0698 86.5817 71.0698 84.2976V67.6395H83.2345Z" fill="#353640"/>
<path d="M50.6152 17.4863V43.7901C50.6152 44.7049 49.8922 45.4464 49.0001 45.4464C48.108 45.4464 47.385 44.7049 47.385 43.7901V17.4863H50.6152Z" fill="#E65A5B"/>
<path d="M80.0038 43.8311H17.9959C12.6595 43.8311 8.3335 48.157 8.3335 53.4934V67.6395H89.666V53.4934C89.666 48.157 85.3401 43.8311 80.0038 43.8311Z" fill="#FF6465"/>
<path opacity="0.1" d="M30.9162 43.8311H17.9959C12.6595 43.8311 8.3335 48.157 8.3335 53.4934V67.6395H21.254V53.4934C21.2538 48.157 25.5802 43.8311 30.9162 43.8311Z" fill="black"/>
<path opacity="0.1" d="M26.9305 67.6405H14.7659V79.6191H26.9305V67.6405Z" fill="black"/>
<path opacity="0.1" d="M83.2335 67.6405H71.0688V79.6191H83.2335V67.6405Z" fill="black"/>
<path d="M92.4937 62.1213H5.50488V73.1574H92.4937V62.1213Z" fill="#C7CFE2"/>
<path opacity="0.1" d="M18.4254 62.1213H5.50488V73.1574H18.4254V62.1213Z" fill="black"/>
<path d="M63.9666 68.2735H34.0322V78.0434H63.9666V68.2735Z" fill="#FFCC33"/>
<path opacity="0.1" d="M42.6459 68.2735H34.0322V78.0434H42.6459V68.2735Z" fill="black"/>
<path d="M20.7847 57.2875C22.9199 57.2875 24.6508 55.5566 24.6508 53.4215C24.6508 51.2863 22.9199 49.5555 20.7847 49.5555C18.6496 49.5555 16.9187 51.2863 16.9187 53.4215C16.9187 55.5566 18.6496 57.2875 20.7847 57.2875Z" fill="#FFEA80"/>
<path d="M77.2147 57.2875C79.3498 57.2875 81.0807 55.5566 81.0807 53.4215C81.0807 51.2863 79.3498 49.5555 77.2147 49.5555C75.0795 49.5555 73.3486 51.2863 73.3486 53.4215C73.3486 55.5566 75.0795 57.2875 77.2147 57.2875Z" fill="#FFEA80"/>
</g>
<defs>
<clipPath id="clip0">
<rect width="98" height="98" fill="white"/>
</clipPath>
</defs>
</svg>
