<svg width="30" height="30" viewBox="0 0 30 30" fill="none" xmlns="http://www.w3.org/2000/svg">
<g clip-path="url(#clip0)">
<path d="M15.1874 21.8551L9.27117 27.7714C7.15282 29.8898 3.70662 29.8898 1.58827 27.7714C-0.530076 25.6531 -0.530076 22.2068 1.58827 20.0884L19.1826 2.49308C21.6539 0.0217293 25.6751 0.0221518 28.1459 2.49308C30.5788 4.92597 29.8792 8.20841 26.8659 10.1765C28.6308 8.41159 28.6308 5.53895 26.8655 3.7736C25.1005 2.00867 22.228 2.00867 20.463 3.7736L15.8281 8.40857C15.8281 8.40881 17.639 8.40857 17.639 8.40857L10.5959 15.4526L9.14731 15.0904L2.8688 21.3689C1.45687 22.7809 1.45687 25.079 2.8688 26.491C4.28115 27.9034 6.57835 27.9034 7.99071 26.491L20.9496 13.5319C22.006 12.4755 22.006 10.7468 20.9496 9.69036C19.9099 8.65062 18.1922 8.60716 17.1581 9.64129C18.8196 7.09056 20.6295 6.80927 22.2301 8.4099C23.995 10.1748 23.995 13.0475 22.2301 14.8124H24.0409L16.9983 21.8551H15.1874Z" fill="#85A2BE"/>
<path d="M15.8283 8.40986L9.10575 15.1325C8.92894 15.3093 8.92894 15.596 9.10575 15.7728L9.74601 16.4131C9.92281 16.5899 10.2092 16.5902 10.386 16.4134C11.768 15.0314 17.158 9.64204 17.1587 9.64131C18.9168 7.91393 21.1816 7.36077 22.2307 8.40986C20.4658 6.64493 17.5941 6.64408 15.8283 8.40986Z" fill="#76A3CE"/>
<path d="M28.1469 11.457L16.7886 22.8155C16.6118 22.9923 16.3252 22.9923 16.1484 22.8155L15.5081 22.1752C15.3313 21.9984 15.3313 21.7118 15.5081 21.535L26.8664 10.1765C29.3374 7.70559 29.9118 4.25848 28.1465 2.49307C30.6178 4.96448 30.6178 8.98611 28.1469 11.457Z" fill="#7FA5C9"/>
</g>
<defs>
<clipPath id="clip0">
<rect width="30" height="30" fill="white"/>
</clipPath>
</defs>
</svg>
