<svg width="40" height="40" viewBox="0 0 40 40" fill="none" xmlns="http://www.w3.org/2000/svg">
<g clip-path="url(#clip0)">
<path d="M38.9237 18.622C35.819 17.845 34.7776 13.9584 37.0778 11.7331C38.1409 10.7045 37.1212 8.93846 35.699 9.34494C32.6217 10.2243 29.7766 7.37924 30.656 4.30191C31.0624 2.87957 29.2964 1.85988 28.2678 2.92308C26.0425 5.22331 22.1559 4.18191 21.3789 1.07722C21.0197 -0.357773 18.9804 -0.357773 18.6212 1.07722C17.8441 4.18191 13.9576 5.22323 11.7323 2.92308C10.7038 1.85996 8.93765 2.87957 9.34421 4.30191C10.2236 7.37924 7.37843 10.2243 4.30117 9.34494C2.87891 8.93854 1.8593 10.7045 2.92243 11.7331C5.22266 13.9584 4.18125 17.845 1.07649 18.622C-0.358505 18.9813 -0.358505 21.0205 1.07649 21.3797C4.18117 22.1567 5.22266 26.0433 2.92243 28.2686C1.8593 29.2972 2.87891 31.0633 4.30117 30.6567C7.37843 29.7773 10.2236 32.6225 9.34421 35.6998C8.93781 37.1222 10.7038 38.1417 11.7323 37.0786C13.9576 34.7784 17.8442 35.8198 18.6212 38.9246C18.9804 40.3596 21.0197 40.3596 21.3789 38.9246C22.156 35.8198 26.0425 34.7784 28.2678 37.0786C29.2964 38.1418 31.0624 37.1221 30.656 35.6998C29.7766 32.6225 32.6217 29.7774 35.699 30.6567C37.1213 31.0632 38.1409 29.2971 37.0778 28.2686C34.7775 26.0433 35.8189 22.1567 38.9237 21.3797C40.3588 21.0205 40.3588 18.9813 38.9237 18.622ZM20 27.655C15.7727 27.655 12.3458 24.228 12.3458 20.0008C12.3458 15.7735 15.7727 12.3466 20 12.3466C24.2272 12.3466 27.6542 15.7734 27.6542 20.0008C27.6542 24.2281 24.2273 27.655 20 27.655Z" fill="#8B8F9B"/>
<path d="M7.60703 19.9999C7.60703 13.9238 9.65288 8.3264 13.0914 3.8557C12.6023 3.65078 12.1394 3.34289 11.7323 2.92211C10.7038 1.85899 8.93765 2.8786 9.34421 4.30094C10.2236 7.37828 7.37843 10.2233 4.30117 9.34398C2.87891 8.93757 1.8593 10.7036 2.92243 11.7322C5.22266 13.9575 4.18125 17.844 1.07649 18.6211C-0.358505 18.9803 -0.358505 21.0196 1.07649 21.3787C4.18117 22.1557 5.22266 26.0423 2.92243 28.2676C1.8593 29.2962 2.87891 31.0623 4.30117 30.6557C7.37843 29.7764 10.2236 32.6215 9.34421 35.6988C8.93781 37.1212 10.7038 38.1407 11.7323 37.0777C12.1394 36.6568 12.6024 36.349 13.0914 36.1441C9.65304 31.6734 7.60703 26.0761 7.60703 19.9999Z" fill="#42424A"/>
</g>
<defs>
<clipPath id="clip0">
<rect width="40" height="40" fill="white"/>
</clipPath>
</defs>
</svg>
