<svg width="55" height="55" viewBox="0 0 55 55" fill="none" xmlns="http://www.w3.org/2000/svg">
<path d="M49.9096 0H5.0903C2.27907 0 0 2.27907 0 5.0903V49.9096C0 52.721 2.27907 54.9999 5.0903 54.9999H49.9096C52.7208 54.9999 54.9999 52.7208 54.9999 49.9096V5.0903C55.0001 2.27907 52.721 0 49.9096 0Z" fill="#DF5867"/>
<path d="M39.9555 20.7598L34.2401 15.0446L27.4999 21.7848L20.7598 15.0446L15.0446 20.7598L21.7848 27.4999L15.0446 34.2401L20.7598 39.9555L27.4999 33.2153L34.2401 39.9555L39.9555 34.2401L33.2153 27.4999L39.9555 20.7598Z" fill="white"/>
<path opacity="0.1" d="M6.82356 49.9096V5.0903C6.82356 2.27907 9.10252 0 11.9139 0H5.0903C2.27907 0 0 2.27907 0 5.0903V49.9096C0 52.7208 2.27907 54.9999 5.0903 54.9999H11.9139C9.10252 55.0001 6.82356 52.721 6.82356 49.9096Z" fill="black"/>
</svg>
