<svg width="40" height="40" viewBox="0 0 40 40" fill="none" xmlns="http://www.w3.org/2000/svg">
<g clip-path="url(#clip0)">
<path d="M17.0347 21.9304C17.0347 21.9304 18.5736 29.182 18.5736 40H22.2985C22.2985 29.182 23.8374 21.9304 23.8374 21.9304L20.4361 18.5588L17.0347 21.9304Z" fill="#42424A"/>
<path d="M13.5389 18.4405H5.43078C3.87336 18.4405 2.49719 17.4476 2.00617 15.9696L0.922812 12.7095C0.552812 11.596 0.734374 10.4116 1.42094 9.45999C2.1075 8.50843 3.17422 7.96265 4.34758 7.96265H13.5389C14.2784 7.96265 14.8779 8.56218 14.8779 9.30163V17.1014C14.8779 17.8409 14.2784 18.4405 13.5389 18.4405ZM4.3475 10.6408C4.04492 10.6408 3.76976 10.7815 3.59266 11.0269C3.41555 11.2724 3.36875 11.5779 3.46422 11.865L4.54758 15.1252C4.67422 15.5063 5.02914 15.7624 5.43078 15.7624H12.1998V10.6409H4.3475V10.6408Z" fill="#42424A"/>
<path d="M34.4177 2.58423C34.4177 2.58423 33.4667 16.1054 23.8375 21.9304H17.0349C7.40561 16.1052 6.45459 2.58423 6.45459 2.58423H34.4177Z" fill="#8B8F9B"/>
<path opacity="0.1" d="M7.60943 8.43978H33.2629C34.2396 5.10595 34.4177 2.58423 34.4177 2.58423H6.45459C6.45459 2.58423 6.63272 5.10595 7.60943 8.43978Z" fill="black"/>
<path d="M37.3676 0H3.50483C2.45679 0 1.60718 0.849609 1.60718 1.8975V3.2707C1.60718 4.31867 2.45679 5.1682 3.50483 5.1682H37.3676C38.4157 5.1682 39.2653 4.31859 39.2653 3.2707V1.8975C39.2653 0.849609 38.4157 0 37.3676 0Z" fill="#42424A"/>
</g>
<defs>
<clipPath id="clip0">
<rect width="40" height="40" fill="white"/>
</clipPath>
</defs>
</svg>
