<svg width="30" height="30" viewBox="0 0 30 30" fill="none" xmlns="http://www.w3.org/2000/svg">
<path d="M30 1.01361H0V28.9864H30V1.01361Z" fill="#7FA5C9"/>
<path d="M26.7947 4.00359H3.20508V25.9996H26.7947V4.00359Z" fill="#E1E6E9"/>
<path d="M19.8998 12.6508C22.1666 12.6508 24.0042 10.8132 24.0042 8.54637C24.0042 6.27957 22.1666 4.44196 19.8998 4.44196C17.633 4.44196 15.7954 6.27957 15.7954 8.54637C15.7954 10.8132 17.633 12.6508 19.8998 12.6508Z" fill="#FCD462"/>
<path d="M19.8999 11.7744C21.6826 11.7744 23.1278 10.3291 23.1278 8.54638C23.1278 6.76362 21.6826 5.31841 19.8999 5.31841C18.1171 5.31841 16.6719 6.76362 16.6719 8.54638C16.6719 10.3291 18.1171 11.7744 19.8999 11.7744Z" fill="#F6C358"/>
<path d="M11.0156 25.9995L19.1445 14.3405L26.6358 25.9995H11.0156Z" fill="#3EA69B"/>
<path d="M3.20557 25.9995L11.3345 14.3405L18.8258 25.9995H3.20557Z" fill="#44C4A1"/>
</svg>
