<svg width="30" height="30" viewBox="0 0 30 30" fill="none" xmlns="http://www.w3.org/2000/svg">
<path fill-rule="evenodd" clip-rule="evenodd" d="M29.4017 15.3422C29.4026 14.3133 29.3115 13.2865 29.1295 12.2739H15V18.0759H23.073C22.9064 18.9938 22.5552 19.8684 22.0407 20.6467C21.5262 21.425 20.8591 22.0907 20.0798 22.6037V26.368H24.9278C27.7643 23.7556 29.4008 19.9104 29.4008 15.3422H29.4017Z" fill="white" fill-opacity="0.6"/>
<path fill-rule="evenodd" clip-rule="evenodd" d="M15 30C19.05 30 22.4461 28.6567 24.9278 26.3662L20.0798 22.6019C18.7365 23.5019 17.0182 24.0345 15 24.0345C11.0932 24.0345 7.78566 21.396 6.60673 17.85H1.59521V21.7415C2.84474 24.2251 4.75993 26.3126 7.12698 27.7709C9.49402 29.2291 12.2198 30.0009 15 30Z" fill="white" fill-opacity="0.6"/>
<path fill-rule="evenodd" clip-rule="evenodd" d="M6.60755 17.8508C5.97945 16.0027 5.97945 13.9989 6.60755 12.1508V8.26431H1.59519C0.546232 10.3551 0 12.662 0 15.0013C0 17.3405 0.546232 19.6474 1.59519 21.7382L6.60755 17.8508Z" fill="white" fill-opacity="0.6"/>
<path d="M1.59521 8.26433L6.60757 12.1508C7.78735 8.60478 11.0941 5.96629 15.0008 5.96629C17.2036 5.96629 19.1806 6.72472 20.7354 8.20955L25.0382 3.90674C22.4402 1.48652 19.0449 9.21267e-07 15 9.21267e-07C12.219 -0.000973731 9.49262 0.771418 7.1254 2.23085C4.75819 3.69029 2.84347 5.77927 1.59521 8.26433Z" fill="white" fill-opacity="0.6"/>
</svg>
