<svg width="98" height="98" viewBox="0 0 98 98" fill="none" xmlns="http://www.w3.org/2000/svg">
<path d="M98.0001 52.3734C98.0001 38.3811 91.7017 25.8598 81.7853 17.49C73.843 10.7861 51.53 10.0183 51.53 10.0183L35.3586 10.1116C35.2383 10.1625 35.093 10.1272 34.9733 10.179C19.1233 17.0572 8.83765 33.3541 8.83765 52.2983C8.83765 77.4979 27.6258 94.6454 52.8254 94.6454C60.4016 94.6454 67.093 96.155 73.3812 92.8875C88.0086 85.2868 98.0001 69.9969 98.0001 52.3734Z" fill="#7FA5C9"/>
<path d="M81.7856 17.4896C77.1459 20.5242 72.1651 23.5352 70.2977 23.9434C65.173 25.442 58.5022 22.2673 57.1318 29.8254C57.0924 31.2845 56.9642 32.6707 56.7453 33.9642C56.5008 35.4076 55.9645 36.7662 55.1856 37.973C54.4068 39.1797 52.3338 39.5319 51.127 40.3601C47.8045 42.6434 45.1048 42.7803 41.5279 40.9169C41.4372 40.8696 41.3446 40.8203 41.2519 40.771C35.293 37.8507 31.7924 31.1346 37.9702 26.2268C42.0302 22.8746 41.4161 16.9617 38.5787 13.2665L36.8711 11.2907C38.1967 10.7432 37.657 9.14578 39.0421 8.72321C43.2588 7.43679 47.7347 6.74507 52.3716 6.74507C63.5797 6.74507 73.8431 10.7854 81.7856 17.4896Z" fill="#A5EB78"/>
<path d="M87.7595 41.0787C87.734 37.3124 86.2133 33.7078 83.5311 31.0617C81.2428 28.4435 80.4513 26.8835 77.3062 29.774C74.3252 33.4821 77.2654 38.0843 70.9293 44.4076C69.8071 45.5499 69.1775 47.1135 69.2408 48.7164C69.2384 48.716 69.2394 48.4333 69.2373 48.4329C69.465 52.4032 72.1769 55.6036 76.042 55.6036C81.0071 55.6034 87.7595 49.7751 87.7595 41.0787Z" fill="#A5EB78"/>
<path d="M73.4744 44.1132C72.3524 45.2569 71.7214 46.8206 71.7845 48.4237C71.7826 48.4217 71.7826 48.4197 71.7806 48.4197C71.9699 51.7068 74.8192 54.4732 77.9879 55.329C77.3234 55.5104 76.6688 55.6031 76.0417 55.6031C72.1769 55.6031 68.0657 52.391 67.8369 48.4197C67.8389 48.4197 67.8389 48.4217 67.8409 48.4237C67.7778 46.8206 68.4088 45.2569 69.5307 44.1132C75.8662 37.7915 72.1947 32.8521 75.1761 29.1451C76.9724 27.4927 78.6978 27.5006 80.2713 28.2992C79.8907 28.5101 79.5082 28.7882 79.1197 29.1451C76.1383 32.8521 79.8099 37.7915 73.4744 44.1132Z" fill="#ABD641"/>
<path d="M92.0457 3.45315V26.229L90.5944 27.6069C90.5944 29.5127 88.4277 29.7998 86.5218 29.7998L76.1048 29.7215C75.6201 29.7215 75.1477 29.8745 74.7553 30.1588L66.1591 36.1278C65.3985 36.6787 64.334 36.1353 64.334 35.1963L65.1408 32.3255C65.1408 31.0548 64.1107 30.0249 62.8403 30.0249H60.0797C58.1739 30.0249 56.6288 28.48 56.6288 26.574L56.2128 5.20808C56.2128 3.3023 56.9698 1.29222 58.8755 1.29222L59.8374 0.00244143H88.5948C90.5007 0.00224424 92.0457 1.54717 92.0457 3.45315Z" fill="#DF5867"/>
<path d="M92.0456 26.2281V27.3785C92.0456 29.2843 90.5007 30.8294 88.5947 30.8294H76.2452C75.7597 30.8294 75.288 30.9836 74.897 31.2666L65.5726 38.0187C64.8135 38.5708 63.7483 38.028 63.7483 37.087V33.1299C63.7483 31.8593 62.7182 30.8294 61.4477 30.8294H58.687C56.7812 30.8294 55.2361 29.2845 55.2361 27.3785V3.45231C55.2361 1.54653 56.781 0.00140381 58.687 0.00140381H59.8374V25.7681C59.8374 26.0223 60.0434 26.2281 60.2974 26.2281H61.4477C64.0957 26.2281 66.3994 27.7257 67.5563 29.9204C67.7535 30.2944 68.2316 30.4126 68.5741 30.1643L72.196 27.5394C73.3809 26.6813 74.7819 26.2281 76.245 26.2281H92.0456Z" fill="#D82F3C"/>
<path d="M63.2169 94.0144C37.4135 94.0144 16.4944 73.1563 16.4944 47.4279C16.4944 32.1048 23.5196 18.6697 34.974 10.179C18.4049 17.0183 6.74365 33.3342 6.74365 52.3732C6.74365 60.1318 8.67999 67.438 12.096 73.835C12.096 73.835 22.9389 82.4224 28.4218 86.4575C35.9853 92.024 50.6818 95.6145 50.6818 95.6145C50.6818 95.6145 67.0345 96.1694 73.305 92.9237C70.0552 93.6377 66.6814 94.0144 63.2169 94.0144Z" fill="#6FBBC6"/>
<path d="M73.3787 92.8827C69.712 87.7759 62.9688 82.1459 63.2586 75.365C63.3574 73.0532 63.0524 70.7337 62.2912 68.5476C62.2792 68.518 62.2696 68.489 62.2599 68.4602C61.875 67.3775 61.2969 66.3756 60.5769 65.4826C58.5897 63.0138 54.3493 56.573 52.2759 55.6699C48.3167 53.2211 42.9565 55.0447 40.8383 59.0654C38.9998 63.7164 38.4926 70.089 33.6898 72.5975C30.8189 74.1545 26.681 73.8047 24.497 71.2267C20.7077 66.305 15.4025 71.0638 12.1005 73.8331C13.4125 76.2842 18.7658 78.0812 20.4971 80.2553C27.6805 89.2786 34.0738 92.7569 44.5996 94.6457C54.3901 96.4224 64.4366 97.5274 73.272 92.9369C73.3075 92.9184 73.3432 92.9011 73.3787 92.8827Z" fill="#A5EB78"/>
<path d="M73.2871 92.9279C65.4432 97.009 56.3856 98.6734 47.5981 97.751V97.749C32.7465 96.2967 19.0403 87.0325 12.1012 73.8327C14.7119 71.642 18.5787 68.2051 21.9564 69.3034C29.8142 84.0073 45.3443 94.0144 63.217 94.0144C66.6756 94.0144 70.0434 93.6397 73.2871 92.9279Z" fill="#ABD641"/>
<path d="M83.4627 53.4236V76.1995L82.0115 77.5774C82.0115 79.4832 79.8448 79.7703 77.9388 79.7703L67.5219 79.692C67.0372 79.692 66.5647 79.845 66.1723 80.1293L57.5761 86.0982C56.8156 86.6492 55.751 86.1057 55.751 85.1668L56.5579 82.296C56.5579 81.0253 55.5278 79.9954 54.2574 79.9954H51.4966C49.5908 79.9954 48.0457 78.4505 48.0457 76.5445L47.6296 55.1786C47.6296 53.2728 48.3866 51.2627 50.2924 51.2627L51.2543 49.9729H80.0116C81.9176 49.9727 83.4627 51.5179 83.4627 53.4236Z" fill="#FFCC33"/>
<path d="M83.4626 76.1994V77.3498C83.4626 79.2558 81.9177 80.8007 80.0117 80.8007H67.6621C67.1767 80.8007 66.705 80.9549 66.314 81.2379L56.9896 87.99C56.2305 88.5421 55.1653 87.9993 55.1653 87.0583V83.1012C55.1653 81.8306 54.1352 80.8007 52.8647 80.8007H50.104C48.1982 80.8007 46.6531 79.2558 46.6531 77.3498V53.4236C46.6531 51.5178 48.198 49.9727 50.104 49.9727H51.2543V75.7394C51.2543 75.9936 51.4604 76.1994 51.7144 76.1994H52.8647C55.5127 76.1994 57.8164 77.6971 58.9733 79.8917C59.1705 80.2658 59.6486 80.3839 59.9911 80.1356L63.613 77.5107C64.7979 76.6526 66.1989 76.1994 67.6619 76.1994H83.4626Z" fill="#FFA442"/>
<path d="M82.5819 11.2907C83.3986 11.2907 84.0608 10.6286 84.0608 9.81184C84.0608 8.99511 83.3986 8.33297 82.5819 8.33297H74.9262V5.81829C74.9262 5.00156 74.2641 4.33942 73.4474 4.33942C72.6306 4.33942 71.9685 5.00156 71.9685 5.81829V8.33297H64.3129C63.4961 8.33297 62.834 8.99511 62.834 9.81184C62.834 10.6286 63.4961 11.2907 64.3129 11.2907H67.3793C68.0893 14.438 69.4938 17.3322 71.4499 19.7938C69.9531 21.2228 68.2019 22.4075 66.2492 23.2779L64.2117 24.1859C63.4656 24.5183 63.1303 25.3927 63.4628 26.1386C63.7081 26.6891 64.2484 27.0159 64.8145 27.0159C65.0156 27.0159 65.2201 26.9747 65.4155 26.8875L67.453 25.9795C69.7007 24.9778 71.7191 23.6178 73.4474 21.978C75.1757 23.6178 77.194 24.9778 79.4417 25.9795L81.4792 26.8875C81.6748 26.9747 81.8791 27.0159 82.0802 27.0159C82.6464 27.0159 83.1866 26.6889 83.4319 26.1386C83.7644 25.3927 83.4292 24.5183 82.683 24.1859L80.6455 23.2779C78.6926 22.4077 76.9417 21.2228 75.4448 19.7938C77.4009 17.3322 78.8052 14.438 79.5153 11.2907H82.5819ZM73.4474 17.54C72.0616 15.6891 71.0275 13.5741 70.4236 11.2907H76.471C75.867 13.5741 74.8332 15.6891 73.4474 17.54Z" fill="#FAF8F8"/>
<path d="M76.3859 56.2972H69.506C68.6893 56.2972 68.0271 56.9593 68.0271 57.7761C68.0271 58.5928 68.6893 59.2549 69.506 59.2549H71.467V63.8887H65.5844C65.9281 63.1889 66.1216 62.4026 66.1216 61.5718C66.1216 58.6634 63.7554 56.2972 60.8469 56.2972H56.5767C55.76 56.2972 55.0979 56.9593 55.0979 57.7761C55.0979 58.5928 55.76 59.2549 56.5767 59.2549H60.8469C62.1245 59.2549 63.1638 60.2943 63.1638 61.5718C63.1638 62.8494 62.1245 63.8887 60.8469 63.8887H56.1021C55.2854 63.8887 54.6232 64.5509 54.6232 65.3676C54.6232 66.1843 55.2854 66.8465 56.1021 66.8465H60.8469C62.1245 66.8465 63.1638 67.8858 63.1638 69.1634C63.1638 70.4626 62.1462 71.4803 60.8469 71.4803C58.8037 71.4803 56.4843 71.25 54.7755 69.5412C54.1979 68.9636 53.2615 68.9636 52.6841 69.5412C52.1066 70.1187 52.1066 71.0551 52.6841 71.6325C55.1708 74.1192 58.3528 74.438 60.8469 74.438C63.7554 74.438 66.1216 72.0718 66.1216 69.1634C66.1216 68.3326 65.9281 67.5463 65.5844 66.8465H71.467V72.9591C71.467 73.7759 72.1291 74.438 72.9459 74.438C73.7626 74.438 74.4248 73.7759 74.4248 72.9591V59.2549H76.3857C77.2025 59.2549 77.8646 58.5928 77.8646 57.7761C77.8646 56.9593 77.2027 56.2972 76.3859 56.2972Z" fill="#FAF8F8"/>
<path d="M39.4681 28.7744L39.411 28.8217C38.6498 29.4271 36.0076 31.8465 34.1343 33.9209C33.3811 31.0755 34.0357 28.0547 36.958 25.7338C41.018 22.3817 39.5194 15.851 36.6819 12.1558L34.9731 10.179C36.2982 9.63087 37.656 9.14481 39.0422 8.72284C40.2687 10.5862 41.3591 12.1558 41.3591 12.1558C44.2991 17.6316 44.4312 24.6789 39.4681 28.7744Z" fill="#ABD641"/>
<path d="M55.3514 37.7048C55.2981 37.7955 55.2429 37.8842 55.1857 37.973C54.4069 39.1797 53.3894 40.2327 52.1826 41.0609C48.8601 43.3442 44.5516 43.6006 40.9747 41.7372C40.884 41.6899 40.7914 41.6406 40.6987 41.5913C35.0908 38.8425 31.2556 31.5724 35.9702 26.6349C34.4697 31.1662 38.0131 36.3975 42.7829 38.6335C42.8795 38.6828 42.9762 38.7321 43.0708 38.7794C46.8094 40.6428 51.3131 40.3865 54.7854 38.1031C54.9787 37.9769 55.168 37.8448 55.3514 37.7048Z" fill="#ABD641"/>
<path d="M47.0995 97.6948C47.1121 97.6961 47.1247 97.6977 47.1373 97.6991C47.1247 97.6977 47.1121 97.6963 47.0995 97.6948Z" fill="#7FA5C9"/>
<path d="M32.9562 93.6703C33.0009 93.6914 33.0461 93.7119 33.0909 93.7328C33.0459 93.7119 33.0009 93.6914 32.9562 93.6703Z" fill="#7FA5C9"/>
<path d="M73.3048 92.924C72.4904 93.3459 71.6642 93.7423 70.8223 94.113C71.6504 93.7462 72.4668 93.3538 73.2713 92.9358C73.2772 92.9338 73.2811 92.9299 73.2871 92.9279C73.293 92.9259 73.2989 92.9259 73.3048 92.924Z" fill="#7FA5C9"/>
<path d="M1.58789 27.0159L1.87736 46.8598C1.87736 48.803 3.46074 50.3783 5.41403 50.3783L16.5164 50.7412C17.0131 50.7412 17.4972 50.8973 17.8995 51.1872L25.4766 57.5929C26.2561 58.1547 27.3471 57.6006 27.3471 56.643L27.8259 53.5463C27.8259 52.2508 28.8814 51.2006 30.1836 51.2006L33.848 51.1872C35.8013 51.1872 37.7247 50.7234 37.7247 48.7802V24.3845C37.7247 22.4412 36.1413 20.866 34.188 20.866H3.53665C1.58336 20.866 1.58789 25.0727 1.58789 27.0159Z" fill="#FAF8F8"/>
<path d="M20.5864 27.4292C20.5821 27.4179 20.5777 27.4067 20.5732 27.3955C20.2829 26.6862 19.6003 26.2275 18.834 26.2267H18.8321C18.0668 26.2267 17.384 26.684 17.0925 27.3919C17.087 27.4053 17.0817 27.4189 17.0764 27.4327L10.4733 44.93C10.185 45.694 10.5707 46.5475 11.3348 46.8357C12.0991 47.124 12.9525 46.7383 13.2406 45.9742L14.524 42.5734H23.1892L24.4861 45.9786C24.7109 46.5687 25.2725 46.9316 25.8684 46.9316C26.0433 46.9316 26.2213 46.9002 26.3944 46.8344C27.1577 46.5437 27.5407 45.6893 27.25 44.926L20.5864 27.4292ZM15.6401 39.6157L18.8366 31.1453L22.0627 39.6157H15.6401Z" fill="#7FA5C9"/>
<path d="M37.7251 48.3546V48.7806C37.7251 50.7228 36.1417 52.2983 34.1876 52.2983H31.358C30.0566 52.2983 29.0017 53.3493 29.0017 54.6448V58.6811C29.0017 59.6374 27.9093 60.1915 27.1304 59.6296L17.5769 52.7439C17.1746 52.4541 16.6896 52.2983 16.1927 52.2983H3.53746C1.58338 52.2983 0 50.7228 0 48.7806V24.3851C0 22.4408 1.58338 20.8653 3.53746 20.8653H3.94366V47.3687C3.94366 47.9131 4.38515 48.3546 4.92958 48.3546H16.1927C17.5177 48.3546 18.8093 48.7727 19.882 49.5456L24.289 52.7222C24.711 53.0259 25.2986 52.8406 25.4879 52.3575C26.4068 50.0169 28.6921 48.3546 31.358 48.3546H37.7251Z" fill="#F0E9E6"/>
</svg>
