<svg width="98" height="99" viewBox="0 0 98 99" fill="none" xmlns="http://www.w3.org/2000/svg">
<g clip-path="url(#clip0)">
<path d="M66.0681 98.8514H6.79779C4.87703 98.8514 3.31975 97.2944 3.31975 95.3734V11.1734C3.31975 9.25265 4.87684 7.69537 6.79779 7.69537H66.0681C67.9888 7.69537 69.5461 9.25246 69.5461 11.1734V95.3734C69.5461 97.2944 67.9888 98.8514 66.0681 98.8514Z" fill="#C8EFFE"/>
<path d="M94.6801 39.4466V74.0289H83.0772V39.4466H94.6801Z" fill="#DF5867"/>
<path d="M83.0772 32.0488V39.4476H94.6801V32.0488C94.6801 31.0234 93.849 30.1923 92.8236 30.1923H84.9337C83.9085 30.1923 83.0772 31.0234 83.0772 32.0488Z" fill="#F47C7C"/>
<path d="M94.681 74.0289H83.0782L87.9309 83.7514C88.3932 84.6774 89.3661 84.6774 89.8281 83.7514L94.681 74.0289Z" fill="#F9C6C6"/>
<path d="M94.6801 39.4466V74.0289H83.0772V39.4466H94.6801Z" fill="#DF5867"/>
<path d="M83.0772 32.0488V39.4476H94.6801V32.0488C94.6801 31.0234 93.849 30.1923 92.8236 30.1923H84.9337C83.9085 30.1923 83.0772 31.0234 83.0772 32.0488Z" fill="#F47C7C"/>
<path d="M94.681 74.0289H83.0782L87.9309 83.7514C88.3932 84.6774 89.3661 84.6774 89.8281 83.7514L94.681 74.0289Z" fill="#F9C6C6"/>
<path d="M89.0906 39.4466H94.6801V74.0289H89.0906V39.4466Z" fill="#CA2C2C"/>
<path d="M92.8236 30.1913H87.2342C88.2595 30.1913 89.0906 31.0224 89.0906 32.0478V39.4466H94.6801V32.0478C94.6801 31.0226 93.849 30.1913 92.8236 30.1913Z" fill="#EE6161"/>
<path d="M89.0908 74.0289L86.0842 80.0529L87.9303 83.7514C88.3926 84.6774 89.3655 84.6774 89.8275 83.7514L94.6803 74.0289H89.0908Z" fill="#F9B1B1"/>
<path d="M72.88 0.85144H13.6096C11.6888 0.85144 10.1317 2.40853 10.1317 4.32948V7.69555H66.0359C67.9567 7.69555 69.514 9.25264 69.514 11.1736V92.0075H72.88C74.8008 92.0075 76.3581 90.4504 76.3581 88.5295V4.32948C76.3579 2.40853 74.8008 0.85144 72.88 0.85144Z" fill="#3E7CA5"/>
<path d="M20.9176 90.9163H12.7674C11.8961 90.9163 11.19 90.21 11.19 89.3389V81.1887C11.19 80.3174 11.8963 79.6113 12.7674 79.6113H20.9176C21.7889 79.6113 22.495 80.3176 22.495 81.1887V89.3389C22.495 90.21 21.7887 90.9163 20.9176 90.9163Z" fill="#7CA1B1"/>
<path d="M60.4673 86.7425H29.0495C28.2326 86.7425 27.5707 86.0804 27.5707 85.2637C27.5707 84.447 28.2328 83.7849 29.0495 83.7849H60.4675C61.2845 83.7849 61.9463 84.447 61.9463 85.2637C61.9463 86.0804 61.2843 86.7425 60.4673 86.7425Z" fill="#42424A"/>
<path d="M39.3792 45.7915H13.1617C12.0726 45.7915 11.1898 44.9087 11.1898 43.8196V17.6023C11.1898 16.5132 12.0726 15.6305 13.1617 15.6305H39.379C40.4681 15.6305 41.3508 16.5132 41.3508 17.6023V43.8196C41.351 44.9087 40.4681 45.7915 39.3792 45.7915Z" fill="white"/>
<path d="M26.2705 31.5143C29.1857 31.5143 31.5489 29.1511 31.5489 26.2359C31.5489 23.3207 29.1857 20.9575 26.2705 20.9575C23.3553 20.9575 20.9921 23.3207 20.9921 26.2359C20.9921 29.1511 23.3553 31.5143 26.2705 31.5143Z" fill="#FFCEBF"/>
<path d="M20.5142 40.4645H32.0267V37.2705C32.0267 34.0914 29.4496 31.5143 26.2705 31.5143C23.0914 31.5143 20.5143 34.0914 20.5143 37.2705L20.5142 40.4645Z" fill="#DF5867"/>
<path d="M60.4674 24.3295H47.3964C46.5795 24.3295 45.9176 23.6675 45.9176 22.8507C45.9176 22.0338 46.5797 21.3719 47.3964 21.3719H60.4674C61.2843 21.3719 61.9462 22.034 61.9462 22.8507C61.9463 23.6675 61.2843 24.3295 60.4674 24.3295Z" fill="#42424A"/>
<path d="M60.4674 32.7139H47.3964C46.5795 32.7139 45.9176 32.0518 45.9176 31.2351C45.9176 30.4183 46.5797 29.7563 47.3964 29.7563H60.4674C61.2843 29.7563 61.9462 30.4183 61.9462 31.2351C61.9462 32.0518 61.2843 32.7139 60.4674 32.7139Z" fill="#42424A"/>
<path d="M60.4674 41.6568H47.3964C46.5795 41.6568 45.9176 40.9947 45.9176 40.178C45.9176 39.361 46.5797 38.6992 47.3964 38.6992H60.4674C61.2843 38.6992 61.9462 39.3612 61.9462 40.178C61.9463 40.9947 61.2843 41.6568 60.4674 41.6568Z" fill="#42424A"/>
<path d="M60.4674 55.9376H11.19C10.3731 55.9376 9.71119 55.2755 9.71119 54.4588C9.71119 53.6421 10.3733 52.98 11.19 52.98H60.4675C61.2845 52.98 61.9463 53.6421 61.9463 54.4588C61.9463 55.2755 61.2843 55.9376 60.4674 55.9376Z" fill="#42424A"/>
<path d="M60.4674 64.3218H11.19C10.3731 64.3218 9.71119 63.6597 9.71119 62.843C9.71119 62.0262 10.3733 61.3642 11.19 61.3642H60.4675C61.2845 61.3642 61.9463 62.0262 61.9463 62.843C61.9463 63.6597 61.2843 64.3218 60.4674 64.3218Z" fill="#42424A"/>
<path d="M60.4674 72.7059H11.19C10.3731 72.7059 9.71119 72.0438 9.71119 71.2271C9.71119 70.4104 10.3733 69.7483 11.19 69.7483H60.4675C61.2845 69.7483 61.9463 70.4104 61.9463 71.2271C61.9463 72.0438 61.2843 72.7059 60.4674 72.7059Z" fill="#42424A"/>
<path d="M15.6232 89.7545C15.5805 89.7545 15.5376 89.7526 15.4947 89.7489C15.0434 89.7097 14.6351 89.4656 14.3865 89.087L10.7069 83.48C10.2588 82.7972 10.4491 81.8802 11.1318 81.4321C11.8145 80.9842 12.7316 81.1743 13.1797 81.8571L15.8301 85.8959L25.1927 75.9359C25.7522 75.3404 26.688 75.3117 27.2832 75.8712C27.8785 76.4307 27.9074 77.3667 27.3479 77.9617L16.7004 89.2886C16.4198 89.5872 16.0291 89.7545 15.6232 89.7545Z" fill="#42424A"/>
<path d="M66.0681 7.69554H59.8994C61.8202 7.69554 63.3775 9.25263 63.3775 11.1736V95.3736C63.3775 97.2944 61.8204 98.8516 59.8994 98.8516H66.0681C67.9888 98.8516 69.5461 97.2945 69.5461 95.3736V11.1734C69.5461 9.25263 67.9888 7.69554 66.0681 7.69554Z" fill="#B3DAFE"/>
</g>
<defs>
<clipPath id="clip0">
<rect width="98" height="98" fill="white" transform="translate(0 0.85144)"/>
</clipPath>
</defs>
</svg>
