<svg width="30" height="30" viewBox="0 0 30 30" fill="none" xmlns="http://www.w3.org/2000/svg">
<path d="M27.1891 13.5938H27.1878C27.0031 13.5939 26.8203 13.6304 26.6497 13.7012C26.4792 13.7721 26.3242 13.8758 26.1937 14.0065C26.0633 14.1372 25.9598 14.2923 25.8893 14.463C25.8188 14.6337 25.7825 14.8166 25.7827 15.0012C25.7809 16.9727 25.2388 18.9061 24.2152 20.591C23.1916 22.276 21.7257 23.6482 19.9769 24.5584C18.2281 25.4686 16.2632 25.882 14.2959 25.7537C12.3286 25.6254 10.434 24.9602 8.81823 23.8306C3.94909 20.4212 2.76145 13.6859 6.17091 8.81672C9.58036 3.94752 16.3157 2.75977 21.1848 6.16934C21.9214 6.68379 22.5909 7.28828 23.1777 7.96875H19.2203C18.8473 7.96875 18.4896 8.11691 18.2259 8.38063C17.9622 8.64435 17.814 9.00204 17.814 9.375C17.814 9.74796 17.9622 10.1056 18.2259 10.3694C18.4896 10.6331 18.8473 10.7812 19.2203 10.7812H25.7828C26.1557 10.7812 26.5134 10.6331 26.7771 10.3694C27.0409 10.1056 27.189 9.74796 27.189 9.375V2.8125C27.189 2.43954 27.0409 2.08185 26.7771 1.81813C26.5134 1.55441 26.1557 1.40625 25.7828 1.40625C25.4098 1.40625 25.0521 1.55441 24.7884 1.81813C24.5247 2.08185 24.3765 2.43954 24.3765 2.8125V5.15432C23.883 4.68609 23.3554 4.25522 22.798 3.86525C21.3358 2.84141 19.6862 2.11559 17.9435 1.72925C16.2008 1.34291 14.399 1.3036 12.6411 1.61358C10.8832 1.92355 9.20356 2.57674 7.69809 3.53584C6.19261 4.49494 4.89079 5.74118 3.86694 7.2034C1.79919 10.1565 0.989241 13.81 1.61526 17.3603C2.24129 20.9105 4.25201 24.0667 7.20509 26.1345C9.47872 27.7359 12.1917 28.5957 14.9727 28.5963C15.7737 28.5959 16.5731 28.5256 17.3619 28.3862C20.5092 27.831 23.3603 26.1848 25.4146 23.7365C27.4689 21.2883 28.595 18.1947 28.5953 14.9988C28.5949 14.626 28.4466 14.2687 28.183 14.0052C27.9193 13.7418 27.5618 13.5938 27.1891 13.5938Z" fill="#FF9800"/>
</svg>
