<svg width="30" height="30" viewBox="0 0 30 30" fill="none" xmlns="http://www.w3.org/2000/svg">
<path d="M25.565 6.29443C22.7385 4.10068 18.9861 2.89248 15 2.89248C14.6367 2.89248 14.2752 2.90244 13.916 2.92236C10.3371 3.12099 7.00371 4.30049 4.43496 6.29443C1.575 8.51397 0 11.4753 0 14.6329C0 17.4812 1.30605 20.2087 3.68496 22.345C2.98477 23.9745 2.08828 25.321 1.01777 26.3505C0.890039 26.4735 0.848437 26.661 0.912305 26.8263C0.976758 26.9915 1.13379 27.1023 1.31074 27.1069C1.32305 27.1069 1.3582 27.1075 1.41504 27.1075C2.03555 27.1075 5.21367 27.0191 8.73164 25.3034C10.3746 25.8958 12.1131 26.2439 13.9154 26.3435C14.2746 26.3634 14.6361 26.3734 15 26.3734C18.9861 26.3734 22.7385 25.1646 25.565 22.9708C28.425 20.7513 30 17.7899 30 14.6329C30 11.4753 28.425 8.51397 25.565 6.29443Z" fill="#FF3E7A"/>
<path d="M23.3387 14.9999C23.3387 16.2117 22.3544 17.1972 21.1442 17.1972C20.8879 17.1972 20.6415 17.1533 20.4127 17.0718C19.5612 16.7695 18.9497 15.955 18.9497 14.9999C18.9497 14.0449 19.5612 13.2304 20.4127 12.9281C20.6415 12.8466 20.8879 12.8027 21.1442 12.8027C22.3544 12.8027 23.3387 13.7882 23.3387 14.9999Z" fill="white"/>
<path d="M23.3391 14.9999C23.3391 16.2117 22.3548 17.1972 21.1446 17.1972C20.8882 17.1972 20.6419 17.1533 20.4131 17.0718C21.2646 16.7695 21.8761 15.955 21.8761 14.9999C21.8761 14.0449 21.2646 13.2304 20.4131 12.9281C20.6419 12.8466 20.8883 12.8027 21.1446 12.8027C22.3548 12.8027 23.3391 13.7882 23.3391 14.9999Z" fill="#DCECF4"/>
<path d="M11.0497 14.9998C11.0497 16.2115 10.0653 17.197 8.85515 17.197C8.59881 17.197 8.35248 17.1531 8.12367 17.0716C7.27219 16.7693 6.66064 15.9548 6.66064 14.9998C6.66064 14.0447 7.27219 13.2302 8.12367 12.9279C8.35248 12.8464 8.59886 12.8025 8.85515 12.8025C10.0653 12.8025 11.0497 13.788 11.0497 14.9998Z" fill="white"/>
<path d="M11.0495 14.9998C11.0495 16.2115 10.0652 17.197 8.85502 17.197C8.59867 17.197 8.35234 17.1531 8.12354 17.0716C8.97502 16.7693 9.58656 15.9548 9.58656 14.9998C9.58656 14.0447 8.97502 13.2302 8.12354 12.9279C8.35234 12.8465 8.59873 12.8025 8.85502 12.8025C10.0652 12.8025 11.0495 13.7881 11.0495 14.9998Z" fill="#DCECF4"/>
<path d="M17.1942 14.9998C17.1942 16.2115 16.2099 17.197 14.9997 17.197C14.7433 17.197 14.497 17.1531 14.2682 17.0716C13.4167 16.7693 12.8052 15.9548 12.8052 14.9998C12.8052 14.0447 13.4167 13.2302 14.2682 12.9279C14.497 12.8465 14.7434 12.8025 14.9997 12.8025C16.2099 12.8025 17.1942 13.7881 17.1942 14.9998Z" fill="white"/>
<path d="M17.1941 14.9998C17.1941 16.2115 16.2097 17.197 14.9996 17.197C14.7432 17.197 14.4969 17.1531 14.2681 17.0716C15.1196 16.7693 15.7311 15.9548 15.7311 14.9998C15.7311 14.0447 15.1196 13.2302 14.2681 12.9279C14.4969 12.8465 14.7433 12.8025 14.9996 12.8025C16.2097 12.8025 17.1941 13.7881 17.1941 14.9998Z" fill="#DCECF4"/>
<path d="M29.9996 14.6329C29.9996 17.7899 28.4246 20.7513 25.5646 22.9708C22.7381 25.1645 18.9857 26.3733 14.9996 26.3733C14.6357 26.3733 14.2742 26.3634 13.915 26.3434C17.4939 26.1448 20.8279 24.9647 23.3967 22.9708C26.2566 20.7513 27.8316 17.7899 27.8316 14.6329C27.8316 11.4753 26.2566 8.51396 23.3967 6.29443C20.8279 4.30049 17.4945 3.12099 13.9156 2.92236C14.2748 2.90244 14.6363 2.89248 14.9996 2.89248C18.9857 2.89248 22.7381 4.10068 25.5646 6.29443C28.4246 8.51396 29.9996 11.4753 29.9996 14.6329Z" fill="#B2006E"/>
</svg>
