<svg width="98" height="98" viewBox="0 0 98 98" fill="none" xmlns="http://www.w3.org/2000/svg">
<g clip-path="url(#clip0)">
<path d="M24.0425 47.0491L37.4971 60.5036L48.4378 56.1082L51.0301 46.9706L4.90077 0.841134C4.08059 0.0209581 2.84353 -0.225382 1.773 0.220021C0.698441 0.663892 0.00133984 1.71012 0 2.87272V22.3353L1.97742 24.8812L0 28.0765V39.2613L1.97876 41.8086L0 45.0053V56.1901L1.97742 58.736L0 61.9315V73.119L1.97742 75.6649L0 78.8602V95.1286C0 95.9218 0.322137 96.639 0.841805 97.1589L13.269 90.055L19.982 78.0184C19.4624 77.4988 19.1402 76.7814 19.1402 75.9882V49.0818C19.1416 47.9192 19.8387 46.873 20.9132 46.4291C21.984 45.9839 23.2224 46.2289 24.0425 47.0491Z" fill="#FFEA80"/>
<path d="M97.7806 96.227C98.2259 95.1565 97.9795 93.9194 97.1593 93.0992L51.0302 46.9698L37.4972 60.5028L50.9518 73.9573C51.7719 74.7775 52.0169 76.0158 51.5717 77.0864C51.1279 78.1609 50.0816 78.858 48.919 78.8594H22.0123C21.2191 78.8594 20.5019 78.5372 19.982 78.0176L0.841797 97.1582C1.36166 97.6779 2.07886 98 2.87204 98H19.1404L22.0125 96.6006L24.8817 98H36.0692L38.9399 96.5991L41.8106 98H52.9954L55.8675 96.6004L58.7393 98H69.9241L72.7949 96.5991L75.6656 98H95.1281C96.2905 97.9987 97.3368 97.3016 97.7806 96.227Z" fill="#FFCC33"/>
<path d="M9.76172 22.3335H0V28.0757H9.76172C11.3466 28.0757 12.6328 26.7913 12.6328 25.2046C12.6328 23.6197 11.3466 22.3335 9.76172 22.3335Z" fill="#FFCC33"/>
<path d="M9.76172 39.2613H0V45.0034H9.76172C11.3466 45.0034 12.6328 43.7191 12.6328 42.1324C12.6328 40.5475 11.3466 39.2613 9.76172 39.2613Z" fill="#FFCC33"/>
<path d="M9.76172 56.1892H0V61.9314H9.76172C11.3466 61.9314 12.6328 60.6471 12.6328 59.0603C12.6328 57.4755 11.3466 56.1892 9.76172 56.1892Z" fill="#FFCC33"/>
<path d="M9.76172 73.1172H0V78.8594H9.76172C11.3466 78.8594 12.6328 77.5732 12.6328 75.9883C12.6328 74.4035 11.3466 73.1172 9.76172 73.1172Z" fill="#FFCC33"/>
<path d="M22.0117 85.3672C20.4269 85.3672 19.1406 86.6534 19.1406 88.2383V98H24.8828V88.2383C24.8828 86.6534 23.5966 85.3672 22.0117 85.3672Z" fill="#FFAA00"/>
<path d="M38.9397 85.3672C37.3529 85.3672 36.0686 86.6534 36.0686 88.2383V98H41.8108V88.2383C41.8108 86.6534 40.5245 85.3672 38.9397 85.3672Z" fill="#FFAA00"/>
<path d="M55.8677 85.3672C54.2809 85.3672 52.9966 86.6534 52.9966 88.2383V98H58.7388V88.2383C58.7388 86.6534 57.4525 85.3672 55.8677 85.3672Z" fill="#FFAA00"/>
<path d="M72.7954 85.3672C71.2087 85.3672 69.9243 86.6534 69.9243 88.2383V98H75.6665V88.2383C75.6665 86.6534 74.3803 85.3672 72.7954 85.3672Z" fill="#FFAA00"/>
<path d="M76.7943 21.2057L75.1947 29.3506L60.7439 37.2563L60.7399 37.1981L56.9313 37.0086L50.3374 30.4147L50.1479 26.6061L46.2784 26.3557L38.5963 18.6736C37.477 17.5516 37.477 15.7353 38.5976 14.6146L52.3716 0.840665C53.4923 -0.280018 55.3086 -0.280018 56.4292 0.840665L76.7943 21.2057Z" fill="#E6F7FF"/>
<path d="M97.1595 45.6286L83.3855 59.4026C82.8253 59.9628 82.0903 60.243 81.3568 60.243C80.6232 60.243 79.887 59.9615 79.3266 59.4039L71.6472 51.7245L71.585 48.0432L67.5855 47.6629L60.9916 41.0689L60.7439 37.2563L76.7943 21.2059L97.1595 41.5712C98.2802 42.6917 98.2802 44.5079 97.1595 45.6286Z" fill="#CCE6FF"/>
<path d="M57.24 23.5106L50.3379 30.4147L46.2782 26.3549L53.1803 19.4509C54.302 18.3293 56.1203 18.3293 57.24 19.4509C58.3617 20.5726 58.3617 22.3909 57.24 23.5106Z" fill="#7FA5C9"/>
<path d="M67.8954 30.1046L64.4432 35.587L58.9613 39.0386L56.9311 37.0084L63.8349 30.1046C64.9558 28.9839 66.7734 28.9852 67.8954 30.1046Z" fill="#B3CCFF"/>
<path d="M67.8954 34.1649L60.9916 41.0687L58.9614 39.0385L67.8954 30.1044C69.0148 31.2266 69.0161 33.0442 67.8954 34.1649Z" fill="#7FA5C9"/>
<path d="M78.5491 44.8197L71.647 51.7237L67.5854 47.6621L74.4894 40.76C75.6091 39.6383 77.4275 39.6383 78.5491 40.76C79.6708 41.8797 79.6708 43.6981 78.5491 44.8197Z" fill="#7FA5C9"/>
</g>
<defs>
<clipPath id="clip0">
<rect width="98" height="98" fill="white"/>
</clipPath>
</defs>
</svg>
