<svg width="512" height="512" viewBox="0 0 512 512" fill="none" xmlns="http://www.w3.org/2000/svg">
<path d="M473.655 88.2759H38.345C17.167 88.2759 0 105.443 0 126.621V190.16H512V126.621C512 105.443 494.833 88.2759 473.655 88.2759Z" fill="#82AFFF"/>
<path d="M0 385.379C0 406.556 17.167 423.724 38.345 423.724H473.655C494.832 423.724 512 406.557 512 385.379V321.84H0V385.379Z" fill="#73AF00"/>
<path d="M512 204.1H0V307.89H512V204.1Z" fill="#F5F5F5"/>
<path d="M0 200.092V204.102H512V200.092V190.159H0V200.092Z" fill="#FF4B55"/>
<path d="M0 311.908V321.841H512V311.908V307.898H0V311.908Z" fill="#FF4B55"/>
<path d="M113.491 172.071C95.419 172.071 80.77 157.457 80.77 139.45C80.77 121.377 95.418 106.697 113.491 106.697C113.561 106.697 113.629 106.697 113.697 106.698C114.761 106.712 115.134 105.299 114.196 104.796C108.631 101.813 102.28 100.125 95.528 100.174C73.904 100.328 56.339 118.247 56.569 139.871C56.795 161.272 74.291 178.595 95.811 178.595C102.47 178.595 108.732 176.91 114.228 173.968C115.163 173.467 114.785 172.054 113.725 172.069C113.645 172.071 113.568 172.071 113.491 172.071Z" fill="#F5F5F5"/>
<path d="M139.113 163.05L137.652 167.432L133.033 167.467C132.435 167.471 132.187 168.235 132.668 168.59L136.384 171.334L134.99 175.738C134.81 176.308 135.459 176.78 135.946 176.432L139.704 173.746L143.462 176.432C143.949 176.78 144.597 176.308 144.418 175.738L143.024 171.334L146.739 168.59C147.22 168.235 146.972 167.471 146.374 167.467L141.755 167.432L140.294 163.05C140.105 162.483 139.303 162.483 139.113 163.05Z" fill="#F5F5F5"/>
<path d="M171.656 163.05L170.195 167.432L165.576 167.467C164.978 167.471 164.73 168.235 165.211 168.59L168.926 171.334L167.532 175.738C167.352 176.308 168.001 176.78 168.488 176.432L172.246 173.746L176.004 176.432C176.491 176.78 177.139 176.308 176.96 175.738L175.566 171.334L179.281 168.59C179.762 168.235 179.514 167.471 178.916 167.467L174.297 167.432L172.836 163.05C172.647 162.483 171.844 162.483 171.656 163.05Z" fill="#F5F5F5"/>
<path d="M204.198 163.05L202.737 167.432L198.118 167.467C197.52 167.471 197.272 168.235 197.753 168.59L201.469 171.334L200.075 175.738C199.895 176.308 200.544 176.78 201.031 176.432L204.789 173.746L208.547 176.432C209.034 176.78 209.682 176.308 209.503 175.738L208.109 171.334L211.824 168.59C212.305 168.235 212.057 167.471 211.459 167.467L206.84 167.432L205.379 163.05C205.19 162.483 204.387 162.483 204.198 163.05Z" fill="#F5F5F5"/>
<path d="M236.74 163.05L235.279 167.432L230.66 167.467C230.062 167.471 229.814 168.235 230.295 168.59L234.01 171.334L232.616 175.738C232.436 176.308 233.085 176.78 233.572 176.432L237.33 173.746L241.088 176.432C241.575 176.78 242.223 176.308 242.044 175.738L240.65 171.334L244.365 168.59C244.846 168.235 244.598 167.471 244 167.467L239.381 167.432L237.92 163.05C237.732 162.483 236.929 162.483 236.74 163.05Z" fill="#F5F5F5"/>
<path d="M269.283 163.05L267.822 167.432L263.203 167.467C262.605 167.471 262.357 168.235 262.838 168.59L266.554 171.334L265.16 175.738C264.98 176.308 265.629 176.78 266.116 176.432L269.874 173.746L273.632 176.432C274.119 176.78 274.767 176.308 274.588 175.738L273.194 171.334L276.91 168.59C277.391 168.235 277.143 167.471 276.545 167.467L271.926 167.432L270.465 163.05C270.274 162.483 269.472 162.483 269.283 163.05Z" fill="#F5F5F5"/>
<path d="M171.656 132.678L170.195 137.06L165.576 137.095C164.978 137.099 164.73 137.863 165.211 138.218L168.926 140.962L167.532 145.366C167.352 145.936 168.001 146.408 168.488 146.06L172.246 143.374L176.004 146.06C176.491 146.408 177.139 145.936 176.96 145.366L175.566 140.962L179.281 138.218C179.762 137.863 179.514 137.099 178.916 137.095L174.297 137.06L172.836 132.678C172.647 132.109 171.844 132.109 171.656 132.678Z" fill="#F5F5F5"/>
<path d="M204.198 132.678L202.737 137.06L198.118 137.095C197.52 137.099 197.272 137.863 197.753 138.218L201.469 140.962L200.075 145.366C199.895 145.936 200.544 146.408 201.031 146.06L204.789 143.374L208.547 146.06C209.034 146.408 209.682 145.936 209.503 145.366L208.109 140.962L211.824 138.218C212.305 137.863 212.057 137.099 211.459 137.095L206.84 137.06L205.379 132.678C205.19 132.109 204.387 132.109 204.198 132.678Z" fill="#F5F5F5"/>
<path d="M236.74 132.678L235.279 137.06L230.66 137.095C230.062 137.099 229.814 137.863 230.295 138.218L234.01 140.962L232.616 145.366C232.436 145.936 233.085 146.408 233.572 146.06L237.33 143.374L241.088 146.06C241.575 146.408 242.223 145.936 242.044 145.366L240.65 140.962L244.365 138.218C244.846 137.863 244.598 137.099 244 137.095L239.381 137.06L237.92 132.678C237.732 132.109 236.929 132.109 236.74 132.678Z" fill="#F5F5F5"/>
<path d="M269.283 132.678L267.822 137.06L263.203 137.095C262.605 137.099 262.357 137.863 262.838 138.218L266.554 140.962L265.16 145.366C264.98 145.936 265.629 146.408 266.116 146.06L269.874 143.374L273.632 146.06C274.119 146.408 274.767 145.936 274.588 145.366L273.194 140.962L276.91 138.218C277.391 137.863 277.143 137.099 276.545 137.095L271.926 137.06L270.465 132.678C270.274 132.109 269.472 132.109 269.283 132.678Z" fill="#F5F5F5"/>
<path d="M204.198 163.05L202.737 167.432L198.118 167.467C197.52 167.471 197.272 168.235 197.753 168.59L201.469 171.334L200.075 175.738C199.895 176.308 200.544 176.78 201.031 176.432L204.789 173.746L208.547 176.432C209.034 176.78 209.682 176.308 209.503 175.738L208.109 171.334L211.824 168.59C212.305 168.235 212.057 167.471 211.459 167.467L206.84 167.432L205.379 163.05C205.19 162.483 204.387 162.483 204.198 163.05Z" fill="#F5F5F5"/>
<path d="M204.198 102.304L202.737 106.686L198.118 106.721C197.52 106.725 197.272 107.489 197.753 107.844L201.469 110.588L200.075 114.992C199.895 115.562 200.544 116.034 201.031 115.686L204.789 113L208.547 115.686C209.034 116.034 209.682 115.562 209.503 114.992L208.109 110.588L211.824 107.844C212.305 107.489 212.057 106.725 211.459 106.721L206.84 106.686L205.379 102.304C205.19 101.737 204.387 101.737 204.198 102.304Z" fill="#F5F5F5"/>
<path d="M236.74 163.05L235.279 167.432L230.66 167.467C230.062 167.471 229.814 168.235 230.295 168.59L234.01 171.334L232.616 175.738C232.436 176.308 233.085 176.78 233.572 176.432L237.33 173.746L241.088 176.432C241.575 176.78 242.223 176.308 242.044 175.738L240.65 171.334L244.365 168.59C244.846 168.235 244.598 167.471 244 167.467L239.381 167.432L237.92 163.05C237.732 162.483 236.929 162.483 236.74 163.05Z" fill="#F5F5F5"/>
<path d="M269.283 163.05L267.822 167.432L263.203 167.467C262.605 167.471 262.357 168.235 262.838 168.59L266.554 171.334L265.16 175.738C264.98 176.308 265.629 176.78 266.116 176.432L269.874 173.746L273.632 176.432C274.119 176.78 274.767 176.308 274.588 175.738L273.194 171.334L276.91 168.59C277.391 168.235 277.143 167.471 276.545 167.467L271.926 167.432L270.465 163.05C270.274 162.483 269.472 162.483 269.283 163.05Z" fill="#F5F5F5"/>
<path d="M236.74 102.304L235.279 106.686L230.66 106.721C230.062 106.725 229.814 107.489 230.295 107.844L234.01 110.588L232.616 114.992C232.436 115.562 233.085 116.034 233.572 115.686L237.33 113L241.088 115.686C241.575 116.034 242.223 115.562 242.044 114.992L240.65 110.588L244.365 107.844C244.846 107.489 244.598 106.725 244 106.721L239.381 106.686L237.92 102.304C237.732 101.737 236.929 101.737 236.74 102.304Z" fill="#F5F5F5"/>
<path d="M269.283 102.304L267.822 106.686L263.203 106.721C262.605 106.725 262.357 107.489 262.838 107.844L266.554 110.588L265.16 114.992C264.98 115.562 265.629 116.034 266.116 115.686L269.874 113L273.632 115.686C274.119 116.034 274.767 115.562 274.588 114.992L273.194 110.588L276.91 107.844C277.391 107.489 277.143 106.725 276.545 106.721L271.926 106.686L270.465 102.304C270.274 101.737 269.472 101.737 269.283 102.304Z" fill="#F5F5F5"/>
</svg>
